{
 "cells": [
  {
   "cell_type": "code",
   "execution_count": 1,
   "metadata": {},
   "outputs": [
    {
     "name": "stderr",
     "output_type": "stream",
     "text": [
      "ffmpeg version 4.3 Copyright (c) 2000-2020 the FFmpeg developers\n",
      "  built with gcc 7.3.0 (crosstool-NG 1.23.0.449-a04d0)\n",
      "  configuration: --prefix=/opt/conda/conda-bld/ffmpeg_1597178665428/_h_env_placehold_placehold_placehold_placehold_placehold_placehold_placehold_placehold_placehold_placehold_placehold_placehold_placehold_placehold_placehold_placehold_placehold_placehold_placehold_placehold_placeh --cc=/opt/conda/conda-bld/ffmpeg_1597178665428/_build_env/bin/x86_64-conda_cos6-linux-gnu-cc --disable-doc --disable-openssl --enable-avresample --enable-gnutls --enable-hardcoded-tables --enable-libfreetype --enable-libopenh264 --enable-pic --enable-pthreads --enable-shared --disable-static --enable-version3 --enable-zlib --enable-libmp3lame\n",
      "  libavutil      56. 51.100 / 56. 51.100\n",
      "  libavcodec     58. 91.100 / 58. 91.100\n",
      "  libavformat    58. 45.100 / 58. 45.100\n",
      "  libavdevice    58. 10.100 / 58. 10.100\n",
      "  libavfilter     7. 85.100 /  7. 85.100\n",
      "  libavresample   4.  0.  0 /  4.  0.  0\n",
      "  libswscale      5.  7.100 /  5.  7.100\n",
      "  libswresample   3.  7.100 /  3.  7.100\n",
      "Input #0, matroska,webm, from '../us_raw/s4_04.mkv':\n",
      "  Metadata:\n",
      "    ENCODER         : Lavf60.16.100\n",
      "  Duration: 00:00:35.40, start: 0.000000, bitrate: 6561 kb/s\n",
      "    Stream #0:0: Video: h264 (High), yuv420p(tv, bt709, progressive), 1920x1080 [SAR 1:1 DAR 16:9], 60 fps, 60 tbr, 1k tbn, 120 tbc\n",
      "    Metadata:\n",
      "      DURATION        : 00:00:35.400000000\n",
      "    Stream #0:1: Audio: aac (LC), 48000 Hz, stereo, fltp\n",
      "    Metadata:\n",
      "      title           : simple_aac_recording0\n",
      "      DURATION        : 00:00:35.370000000\n",
      "Stream mapping:\n",
      "  Stream #0:1 -> #0:0 (aac (native) -> pcm_s16le (native))\n",
      "Press [q] to stop, [?] for help\n",
      "Output #0, wav, to '../us_raw_audio/s4_04.wav':\n",
      "  Metadata:\n",
      "    ISFT            : Lavf58.45.100\n",
      "    Stream #0:0: Audio: pcm_s16le ([1][0][0][0] / 0x0001), 44100 Hz, stereo, s16, 1411 kb/s\n",
      "    Metadata:\n",
      "      title           : simple_aac_recording0\n",
      "      DURATION        : 00:00:35.370000000\n",
      "      encoder         : Lavc58.91.100 pcm_s16le\n",
      "size=    6093kB time=00:00:35.37 bitrate=1411.2kbits/s speed= 939x    \n",
      "video:0kB audio:6093kB subtitle:0kB other streams:0kB global headers:0kB muxing overhead: 0.001250%\n",
      "ffmpeg version 4.3 Copyright (c) 2000-2020 the FFmpeg developers\n",
      "  built with gcc 7.3.0 (crosstool-NG 1.23.0.449-a04d0)\n",
      "  configuration: --prefix=/opt/conda/conda-bld/ffmpeg_1597178665428/_h_env_placehold_placehold_placehold_placehold_placehold_placehold_placehold_placehold_placehold_placehold_placehold_placehold_placehold_placehold_placehold_placehold_placehold_placehold_placehold_placehold_placeh --cc=/opt/conda/conda-bld/ffmpeg_1597178665428/_build_env/bin/x86_64-conda_cos6-linux-gnu-cc --disable-doc --disable-openssl --enable-avresample --enable-gnutls --enable-hardcoded-tables --enable-libfreetype --enable-libopenh264 --enable-pic --enable-pthreads --enable-shared --disable-static --enable-version3 --enable-zlib --enable-libmp3lame\n",
      "  libavutil      56. 51.100 / 56. 51.100\n",
      "  libavcodec     58. 91.100 / 58. 91.100\n",
      "  libavformat    58. 45.100 / 58. 45.100\n",
      "  libavdevice    58. 10.100 / 58. 10.100\n",
      "  libavfilter     7. 85.100 /  7. 85.100\n",
      "  libavresample   4.  0.  0 /  4.  0.  0\n",
      "  libswscale      5.  7.100 /  5.  7.100\n",
      "  libswresample   3.  7.100 /  3.  7.100\n",
      "Input #0, matroska,webm, from '../us_raw/s6_04.mkv':\n",
      "  Metadata:\n",
      "    ENCODER         : Lavf60.16.100\n",
      "  Duration: 00:00:41.32, start: 0.000000, bitrate: 6686 kb/s\n",
      "    Stream #0:0: Video: h264 (High), yuv420p(tv, bt709, progressive), 1920x1080 [SAR 1:1 DAR 16:9], 60 fps, 60 tbr, 1k tbn, 120 tbc\n",
      "    Metadata:\n",
      "      DURATION        : 00:00:41.317000000\n",
      "    Stream #0:1: Audio: aac (LC), 48000 Hz, stereo, fltp\n",
      "    Metadata:\n",
      "      title           : simple_aac_recording0\n",
      "      DURATION        : 00:00:41.301000000\n",
      "Stream mapping:\n",
      "  Stream #0:1 -> #0:0 (aac (native) -> pcm_s16le (native))\n",
      "Press [q] to stop, [?] for help\n",
      "Output #0, wav, to '../us_raw_audio/s6_04.wav':\n",
      "  Metadata:\n",
      "    ISFT            : Lavf58.45.100\n",
      "    Stream #0:0: Audio: pcm_s16le ([1][0][0][0] / 0x0001), 44100 Hz, stereo, s16, 1411 kb/s\n",
      "    Metadata:\n",
      "      title           : simple_aac_recording0\n",
      "      DURATION        : 00:00:41.301000000\n",
      "      encoder         : Lavc58.91.100 pcm_s16le\n",
      "size=    7115kB time=00:00:41.30 bitrate=1411.2kbits/s speed=1.05e+03x    \n",
      "video:0kB audio:7115kB subtitle:0kB other streams:0kB global headers:0kB muxing overhead: 0.001071%\n",
      "ffmpeg version 4.3 Copyright (c) 2000-2020 the FFmpeg developers\n",
      "  built with gcc 7.3.0 (crosstool-NG 1.23.0.449-a04d0)\n",
      "  configuration: --prefix=/opt/conda/conda-bld/ffmpeg_1597178665428/_h_env_placehold_placehold_placehold_placehold_placehold_placehold_placehold_placehold_placehold_placehold_placehold_placehold_placehold_placehold_placehold_placehold_placehold_placehold_placehold_placehold_placeh --cc=/opt/conda/conda-bld/ffmpeg_1597178665428/_build_env/bin/x86_64-conda_cos6-linux-gnu-cc --disable-doc --disable-openssl --enable-avresample --enable-gnutls --enable-hardcoded-tables --enable-libfreetype --enable-libopenh264 --enable-pic --enable-pthreads --enable-shared --disable-static --enable-version3 --enable-zlib --enable-libmp3lame\n",
      "  libavutil      56. 51.100 / 56. 51.100\n",
      "  libavcodec     58. 91.100 / 58. 91.100\n",
      "  libavformat    58. 45.100 / 58. 45.100\n",
      "  libavdevice    58. 10.100 / 58. 10.100\n",
      "  libavfilter     7. 85.100 /  7. 85.100\n",
      "  libavresample   4.  0.  0 /  4.  0.  0\n",
      "  libswscale      5.  7.100 /  5.  7.100\n",
      "  libswresample   3.  7.100 /  3.  7.100\n",
      "Input #0, matroska,webm, from '../us_raw/s3_03.mkv':\n",
      "  Metadata:\n",
      "    ENCODER         : Lavf60.16.100\n",
      "  Duration: 00:00:30.13, start: 0.000000, bitrate: 6323 kb/s\n",
      "    Stream #0:0: Video: h264 (High), yuv420p(tv, bt709, progressive), 1920x1080 [SAR 1:1 DAR 16:9], 60 fps, 60 tbr, 1k tbn, 120 tbc\n",
      "    Metadata:\n",
      "      DURATION        : 00:00:30.134000000\n",
      "    Stream #0:1: Audio: aac (LC), 48000 Hz, stereo, fltp\n",
      "    Metadata:\n",
      "      title           : simple_aac_recording0\n",
      "      DURATION        : 00:00:30.101000000\n",
      "Stream mapping:\n",
      "  Stream #0:1 -> #0:0 (aac (native) -> pcm_s16le (native))\n",
      "Press [q] to stop, [?] for help\n",
      "Output #0, wav, to '../us_raw_audio/s3_03.wav':\n",
      "  Metadata:\n",
      "    ISFT            : Lavf58.45.100\n",
      "    Stream #0:0: Audio: pcm_s16le ([1][0][0][0] / 0x0001), 44100 Hz, stereo, s16, 1411 kb/s\n",
      "    Metadata:\n",
      "      title           : simple_aac_recording0\n",
      "      DURATION        : 00:00:30.101000000\n",
      "      encoder         : Lavc58.91.100 pcm_s16le\n",
      "size=    5186kB time=00:00:30.10 bitrate=1411.2kbits/s speed=1.06e+03x    \n",
      "video:0kB audio:5185kB subtitle:0kB other streams:0kB global headers:0kB muxing overhead: 0.001469%\n",
      "ffmpeg version 4.3 Copyright (c) 2000-2020 the FFmpeg developers\n",
      "  built with gcc 7.3.0 (crosstool-NG 1.23.0.449-a04d0)\n",
      "  configuration: --prefix=/opt/conda/conda-bld/ffmpeg_1597178665428/_h_env_placehold_placehold_placehold_placehold_placehold_placehold_placehold_placehold_placehold_placehold_placehold_placehold_placehold_placehold_placehold_placehold_placehold_placehold_placehold_placehold_placeh --cc=/opt/conda/conda-bld/ffmpeg_1597178665428/_build_env/bin/x86_64-conda_cos6-linux-gnu-cc --disable-doc --disable-openssl --enable-avresample --enable-gnutls --enable-hardcoded-tables --enable-libfreetype --enable-libopenh264 --enable-pic --enable-pthreads --enable-shared --disable-static --enable-version3 --enable-zlib --enable-libmp3lame\n",
      "  libavutil      56. 51.100 / 56. 51.100\n",
      "  libavcodec     58. 91.100 / 58. 91.100\n",
      "  libavformat    58. 45.100 / 58. 45.100\n",
      "  libavdevice    58. 10.100 / 58. 10.100\n",
      "  libavfilter     7. 85.100 /  7. 85.100\n",
      "  libavresample   4.  0.  0 /  4.  0.  0\n",
      "  libswscale      5.  7.100 /  5.  7.100\n",
      "  libswresample   3.  7.100 /  3.  7.100\n",
      "Input #0, matroska,webm, from '../us_raw/s5_02.mkv':\n",
      "  Metadata:\n",
      "    ENCODER         : Lavf60.16.100\n",
      "  Duration: 00:00:44.08, start: 0.000000, bitrate: 6346 kb/s\n",
      "    Stream #0:0: Video: h264 (High), yuv420p(tv, bt709, progressive), 1920x1080 [SAR 1:1 DAR 16:9], 60 fps, 60 tbr, 1k tbn, 120 tbc\n",
      "    Metadata:\n",
      "      DURATION        : 00:00:44.084000000\n",
      "    Stream #0:1: Audio: aac (LC), 48000 Hz, stereo, fltp\n",
      "    Metadata:\n",
      "      title           : simple_aac_recording0\n",
      "      DURATION        : 00:00:44.053000000\n",
      "Stream mapping:\n",
      "  Stream #0:1 -> #0:0 (aac (native) -> pcm_s16le (native))\n",
      "Press [q] to stop, [?] for help\n",
      "Output #0, wav, to '../us_raw_audio/s5_02.wav':\n",
      "  Metadata:\n",
      "    ISFT            : Lavf58.45.100\n",
      "    Stream #0:0: Audio: pcm_s16le ([1][0][0][0] / 0x0001), 44100 Hz, stereo, s16, 1411 kb/s\n",
      "    Metadata:\n",
      "      title           : simple_aac_recording0\n",
      "      DURATION        : 00:00:44.053000000\n",
      "      encoder         : Lavc58.91.100 pcm_s16le\n",
      "size=    7589kB time=00:00:44.05 bitrate=1411.2kbits/s speed=1.09e+03x    \n",
      "video:0kB audio:7589kB subtitle:0kB other streams:0kB global headers:0kB muxing overhead: 0.001004%\n",
      "ffmpeg version 4.3 Copyright (c) 2000-2020 the FFmpeg developers\n",
      "  built with gcc 7.3.0 (crosstool-NG 1.23.0.449-a04d0)\n",
      "  configuration: --prefix=/opt/conda/conda-bld/ffmpeg_1597178665428/_h_env_placehold_placehold_placehold_placehold_placehold_placehold_placehold_placehold_placehold_placehold_placehold_placehold_placehold_placehold_placehold_placehold_placehold_placehold_placehold_placehold_placeh --cc=/opt/conda/conda-bld/ffmpeg_1597178665428/_build_env/bin/x86_64-conda_cos6-linux-gnu-cc --disable-doc --disable-openssl --enable-avresample --enable-gnutls --enable-hardcoded-tables --enable-libfreetype --enable-libopenh264 --enable-pic --enable-pthreads --enable-shared --disable-static --enable-version3 --enable-zlib --enable-libmp3lame\n",
      "  libavutil      56. 51.100 / 56. 51.100\n",
      "  libavcodec     58. 91.100 / 58. 91.100\n",
      "  libavformat    58. 45.100 / 58. 45.100\n",
      "  libavdevice    58. 10.100 / 58. 10.100\n",
      "  libavfilter     7. 85.100 /  7. 85.100\n",
      "  libavresample   4.  0.  0 /  4.  0.  0\n",
      "  libswscale      5.  7.100 /  5.  7.100\n",
      "  libswresample   3.  7.100 /  3.  7.100\n",
      "Input #0, matroska,webm, from '../us_raw/s5_04.mkv':\n",
      "  Metadata:\n",
      "    ENCODER         : Lavf60.16.100\n",
      "  Duration: 00:00:44.03, start: 0.000000, bitrate: 6334 kb/s\n",
      "    Stream #0:0: Video: h264 (High), yuv420p(tv, bt709, progressive), 1920x1080 [SAR 1:1 DAR 16:9], 60 fps, 60 tbr, 1k tbn, 120 tbc\n",
      "    Metadata:\n",
      "      DURATION        : 00:00:44.034000000\n",
      "    Stream #0:1: Audio: aac (LC), 48000 Hz, stereo, fltp\n",
      "    Metadata:\n",
      "      title           : simple_aac_recording0\n",
      "      DURATION        : 00:00:43.968000000\n",
      "Stream mapping:\n",
      "  Stream #0:1 -> #0:0 (aac (native) -> pcm_s16le (native))\n",
      "Press [q] to stop, [?] for help\n",
      "Output #0, wav, to '../us_raw_audio/s5_04.wav':\n",
      "  Metadata:\n",
      "    ISFT            : Lavf58.45.100\n",
      "    Stream #0:0: Audio: pcm_s16le ([1][0][0][0] / 0x0001), 44100 Hz, stereo, s16, 1411 kb/s\n",
      "    Metadata:\n",
      "      title           : simple_aac_recording0\n",
      "      DURATION        : 00:00:43.968000000\n",
      "      encoder         : Lavc58.91.100 pcm_s16le\n",
      "size=    7574kB time=00:00:43.96 bitrate=1411.2kbits/s speed=1.15e+03x    \n",
      "video:0kB audio:7574kB subtitle:0kB other streams:0kB global headers:0kB muxing overhead: 0.001006%\n",
      "ffmpeg version 4.3 Copyright (c) 2000-2020 the FFmpeg developers\n",
      "  built with gcc 7.3.0 (crosstool-NG 1.23.0.449-a04d0)\n",
      "  configuration: --prefix=/opt/conda/conda-bld/ffmpeg_1597178665428/_h_env_placehold_placehold_placehold_placehold_placehold_placehold_placehold_placehold_placehold_placehold_placehold_placehold_placehold_placehold_placehold_placehold_placehold_placehold_placehold_placehold_placeh --cc=/opt/conda/conda-bld/ffmpeg_1597178665428/_build_env/bin/x86_64-conda_cos6-linux-gnu-cc --disable-doc --disable-openssl --enable-avresample --enable-gnutls --enable-hardcoded-tables --enable-libfreetype --enable-libopenh264 --enable-pic --enable-pthreads --enable-shared --disable-static --enable-version3 --enable-zlib --enable-libmp3lame\n",
      "  libavutil      56. 51.100 / 56. 51.100\n",
      "  libavcodec     58. 91.100 / 58. 91.100\n",
      "  libavformat    58. 45.100 / 58. 45.100\n",
      "  libavdevice    58. 10.100 / 58. 10.100\n",
      "  libavfilter     7. 85.100 /  7. 85.100\n",
      "  libavresample   4.  0.  0 /  4.  0.  0\n",
      "  libswscale      5.  7.100 /  5.  7.100\n",
      "  libswresample   3.  7.100 /  3.  7.100\n",
      "Input #0, matroska,webm, from '../us_raw/s3_04.mkv':\n",
      "  Metadata:\n",
      "    ENCODER         : Lavf60.16.100\n",
      "  Duration: 00:00:31.33, start: 0.000000, bitrate: 6316 kb/s\n",
      "    Stream #0:0: Video: h264 (High), yuv420p(tv, bt709, progressive), 1920x1080 [SAR 1:1 DAR 16:9], 60 fps, 60 tbr, 1k tbn, 120 tbc\n",
      "    Metadata:\n",
      "      DURATION        : 00:00:31.334000000\n",
      "    Stream #0:1: Audio: aac (LC), 48000 Hz, stereo, fltp\n",
      "    Metadata:\n",
      "      title           : simple_aac_recording0\n",
      "      DURATION        : 00:00:31.296000000\n",
      "Stream mapping:\n",
      "  Stream #0:1 -> #0:0 (aac (native) -> pcm_s16le (native))\n",
      "Press [q] to stop, [?] for help\n",
      "Output #0, wav, to '../us_raw_audio/s3_04.wav':\n",
      "  Metadata:\n",
      "    ISFT            : Lavf58.45.100\n",
      "    Stream #0:0: Audio: pcm_s16le ([1][0][0][0] / 0x0001), 44100 Hz, stereo, s16, 1411 kb/s\n",
      "    Metadata:\n",
      "      title           : simple_aac_recording0\n",
      "      DURATION        : 00:00:31.296000000\n",
      "      encoder         : Lavc58.91.100 pcm_s16le\n",
      "size=    5391kB time=00:00:31.29 bitrate=1411.2kbits/s speed=1.09e+03x    \n",
      "video:0kB audio:5391kB subtitle:0kB other streams:0kB global headers:0kB muxing overhead: 0.001413%\n",
      "ffmpeg version 4.3 Copyright (c) 2000-2020 the FFmpeg developers\n",
      "  built with gcc 7.3.0 (crosstool-NG 1.23.0.449-a04d0)\n",
      "  configuration: --prefix=/opt/conda/conda-bld/ffmpeg_1597178665428/_h_env_placehold_placehold_placehold_placehold_placehold_placehold_placehold_placehold_placehold_placehold_placehold_placehold_placehold_placehold_placehold_placehold_placehold_placehold_placehold_placehold_placeh --cc=/opt/conda/conda-bld/ffmpeg_1597178665428/_build_env/bin/x86_64-conda_cos6-linux-gnu-cc --disable-doc --disable-openssl --enable-avresample --enable-gnutls --enable-hardcoded-tables --enable-libfreetype --enable-libopenh264 --enable-pic --enable-pthreads --enable-shared --disable-static --enable-version3 --enable-zlib --enable-libmp3lame\n",
      "  libavutil      56. 51.100 / 56. 51.100\n",
      "  libavcodec     58. 91.100 / 58. 91.100\n",
      "  libavformat    58. 45.100 / 58. 45.100\n",
      "  libavdevice    58. 10.100 / 58. 10.100\n",
      "  libavfilter     7. 85.100 /  7. 85.100\n",
      "  libavresample   4.  0.  0 /  4.  0.  0\n",
      "  libswscale      5.  7.100 /  5.  7.100\n",
      "  libswresample   3.  7.100 /  3.  7.100\n",
      "Input #0, matroska,webm, from '../us_raw/s5_03.mkv':\n",
      "  Metadata:\n",
      "    ENCODER         : Lavf60.16.100\n",
      "  Duration: 00:00:44.28, start: 0.000000, bitrate: 6332 kb/s\n",
      "    Stream #0:0: Video: h264 (High), yuv420p(tv, bt709, progressive), 1920x1080 [SAR 1:1 DAR 16:9], 60 fps, 60 tbr, 1k tbn, 120 tbc\n",
      "    Metadata:\n",
      "      DURATION        : 00:00:44.284000000\n",
      "    Stream #0:1: Audio: aac (LC), 48000 Hz, stereo, fltp\n",
      "    Metadata:\n",
      "      title           : simple_aac_recording0\n",
      "      DURATION        : 00:00:44.224000000\n",
      "Stream mapping:\n",
      "  Stream #0:1 -> #0:0 (aac (native) -> pcm_s16le (native))\n",
      "Press [q] to stop, [?] for help\n",
      "Output #0, wav, to '../us_raw_audio/s5_03.wav':\n",
      "  Metadata:\n",
      "    ISFT            : Lavf58.45.100\n",
      "    Stream #0:0: Audio: pcm_s16le ([1][0][0][0] / 0x0001), 44100 Hz, stereo, s16, 1411 kb/s\n",
      "    Metadata:\n",
      "      title           : simple_aac_recording0\n",
      "      DURATION        : 00:00:44.224000000\n",
      "      encoder         : Lavc58.91.100 pcm_s16le\n",
      "size=    7618kB time=00:00:44.22 bitrate=1411.2kbits/s speed=1.1e+03x    \n",
      "video:0kB audio:7618kB subtitle:0kB other streams:0kB global headers:0kB muxing overhead: 0.001000%\n",
      "ffmpeg version 4.3 Copyright (c) 2000-2020 the FFmpeg developers\n",
      "  built with gcc 7.3.0 (crosstool-NG 1.23.0.449-a04d0)\n",
      "  configuration: --prefix=/opt/conda/conda-bld/ffmpeg_1597178665428/_h_env_placehold_placehold_placehold_placehold_placehold_placehold_placehold_placehold_placehold_placehold_placehold_placehold_placehold_placehold_placehold_placehold_placehold_placehold_placehold_placehold_placeh --cc=/opt/conda/conda-bld/ffmpeg_1597178665428/_build_env/bin/x86_64-conda_cos6-linux-gnu-cc --disable-doc --disable-openssl --enable-avresample --enable-gnutls --enable-hardcoded-tables --enable-libfreetype --enable-libopenh264 --enable-pic --enable-pthreads --enable-shared --disable-static --enable-version3 --enable-zlib --enable-libmp3lame\n",
      "  libavutil      56. 51.100 / 56. 51.100\n",
      "  libavcodec     58. 91.100 / 58. 91.100\n",
      "  libavformat    58. 45.100 / 58. 45.100\n",
      "  libavdevice    58. 10.100 / 58. 10.100\n",
      "  libavfilter     7. 85.100 /  7. 85.100\n",
      "  libavresample   4.  0.  0 /  4.  0.  0\n",
      "  libswscale      5.  7.100 /  5.  7.100\n",
      "  libswresample   3.  7.100 /  3.  7.100\n",
      "Input #0, matroska,webm, from '../us_raw/s6_02.mkv':\n",
      "  Metadata:\n",
      "    ENCODER         : Lavf60.16.100\n",
      "  Duration: 00:00:41.52, start: 0.000000, bitrate: 6769 kb/s\n",
      "    Stream #0:0: Video: h264 (High), yuv420p(tv, bt709, progressive), 1920x1080 [SAR 1:1 DAR 16:9], 60 fps, 60 tbr, 1k tbn, 120 tbc\n",
      "    Metadata:\n",
      "      DURATION        : 00:00:41.517000000\n",
      "    Stream #0:1: Audio: aac (LC), 48000 Hz, stereo, fltp\n",
      "    Metadata:\n",
      "      title           : simple_aac_recording0\n",
      "      DURATION        : 00:00:41.450000000\n",
      "Stream mapping:\n",
      "  Stream #0:1 -> #0:0 (aac (native) -> pcm_s16le (native))\n",
      "Press [q] to stop, [?] for help\n",
      "Output #0, wav, to '../us_raw_audio/s6_02.wav':\n",
      "  Metadata:\n",
      "    ISFT            : Lavf58.45.100\n",
      "    Stream #0:0: Audio: pcm_s16le ([1][0][0][0] / 0x0001), 44100 Hz, stereo, s16, 1411 kb/s\n",
      "    Metadata:\n",
      "      title           : simple_aac_recording0\n",
      "      DURATION        : 00:00:41.450000000\n",
      "      encoder         : Lavc58.91.100 pcm_s16le\n",
      "size=    7141kB time=00:00:41.45 bitrate=1411.2kbits/s speed=1.12e+03x    \n",
      "video:0kB audio:7141kB subtitle:0kB other streams:0kB global headers:0kB muxing overhead: 0.001067%\n",
      "ffmpeg version 4.3 Copyright (c) 2000-2020 the FFmpeg developers\n",
      "  built with gcc 7.3.0 (crosstool-NG 1.23.0.449-a04d0)\n",
      "  configuration: --prefix=/opt/conda/conda-bld/ffmpeg_1597178665428/_h_env_placehold_placehold_placehold_placehold_placehold_placehold_placehold_placehold_placehold_placehold_placehold_placehold_placehold_placehold_placehold_placehold_placehold_placehold_placehold_placehold_placeh --cc=/opt/conda/conda-bld/ffmpeg_1597178665428/_build_env/bin/x86_64-conda_cos6-linux-gnu-cc --disable-doc --disable-openssl --enable-avresample --enable-gnutls --enable-hardcoded-tables --enable-libfreetype --enable-libopenh264 --enable-pic --enable-pthreads --enable-shared --disable-static --enable-version3 --enable-zlib --enable-libmp3lame\n",
      "  libavutil      56. 51.100 / 56. 51.100\n",
      "  libavcodec     58. 91.100 / 58. 91.100\n",
      "  libavformat    58. 45.100 / 58. 45.100\n",
      "  libavdevice    58. 10.100 / 58. 10.100\n",
      "  libavfilter     7. 85.100 /  7. 85.100\n",
      "  libavresample   4.  0.  0 /  4.  0.  0\n",
      "  libswscale      5.  7.100 /  5.  7.100\n",
      "  libswresample   3.  7.100 /  3.  7.100\n",
      "Input #0, matroska,webm, from '../us_raw/s4_01.mkv':\n",
      "  Metadata:\n",
      "    ENCODER         : Lavf60.16.100\n",
      "  Duration: 00:00:35.50, start: 0.000000, bitrate: 6479 kb/s\n",
      "    Stream #0:0: Video: h264 (High), yuv420p(tv, bt709, progressive), 1920x1080 [SAR 1:1 DAR 16:9], 60 fps, 60 tbr, 1k tbn, 120 tbc\n",
      "    Metadata:\n",
      "      DURATION        : 00:00:35.500000000\n",
      "    Stream #0:1: Audio: aac (LC), 48000 Hz, stereo, fltp\n",
      "    Metadata:\n",
      "      title           : simple_aac_recording0\n",
      "      DURATION        : 00:00:35.456000000\n",
      "Stream mapping:\n",
      "  Stream #0:1 -> #0:0 (aac (native) -> pcm_s16le (native))\n",
      "Press [q] to stop, [?] for help\n",
      "Output #0, wav, to '../us_raw_audio/s4_01.wav':\n",
      "  Metadata:\n",
      "    ISFT            : Lavf58.45.100\n",
      "    Stream #0:0: Audio: pcm_s16le ([1][0][0][0] / 0x0001), 44100 Hz, stereo, s16, 1411 kb/s\n",
      "    Metadata:\n",
      "      title           : simple_aac_recording0\n",
      "      DURATION        : 00:00:35.456000000\n",
      "      encoder         : Lavc58.91.100 pcm_s16le\n",
      "size=    6108kB time=00:00:35.45 bitrate=1411.2kbits/s speed=1.09e+03x    \n",
      "video:0kB audio:6108kB subtitle:0kB other streams:0kB global headers:0kB muxing overhead: 0.001247%\n",
      "ffmpeg version 4.3 Copyright (c) 2000-2020 the FFmpeg developers\n",
      "  built with gcc 7.3.0 (crosstool-NG 1.23.0.449-a04d0)\n",
      "  configuration: --prefix=/opt/conda/conda-bld/ffmpeg_1597178665428/_h_env_placehold_placehold_placehold_placehold_placehold_placehold_placehold_placehold_placehold_placehold_placehold_placehold_placehold_placehold_placehold_placehold_placehold_placehold_placehold_placehold_placeh --cc=/opt/conda/conda-bld/ffmpeg_1597178665428/_build_env/bin/x86_64-conda_cos6-linux-gnu-cc --disable-doc --disable-openssl --enable-avresample --enable-gnutls --enable-hardcoded-tables --enable-libfreetype --enable-libopenh264 --enable-pic --enable-pthreads --enable-shared --disable-static --enable-version3 --enable-zlib --enable-libmp3lame\n",
      "  libavutil      56. 51.100 / 56. 51.100\n",
      "  libavcodec     58. 91.100 / 58. 91.100\n",
      "  libavformat    58. 45.100 / 58. 45.100\n",
      "  libavdevice    58. 10.100 / 58. 10.100\n",
      "  libavfilter     7. 85.100 /  7. 85.100\n",
      "  libavresample   4.  0.  0 /  4.  0.  0\n",
      "  libswscale      5.  7.100 /  5.  7.100\n",
      "  libswresample   3.  7.100 /  3.  7.100\n",
      "Input #0, matroska,webm, from '../us_raw/s6_03.mkv':\n",
      "  Metadata:\n",
      "    ENCODER         : Lavf60.16.100\n",
      "  Duration: 00:00:39.87, start: 0.000000, bitrate: 6594 kb/s\n",
      "    Stream #0:0: Video: h264 (High), yuv420p(tv, bt709, progressive), 1920x1080 [SAR 1:1 DAR 16:9], 60 fps, 60 tbr, 1k tbn, 120 tbc\n",
      "    Metadata:\n",
      "      DURATION        : 00:00:39.867000000\n",
      "    Stream #0:1: Audio: aac (LC), 48000 Hz, stereo, fltp\n",
      "    Metadata:\n",
      "      title           : simple_aac_recording0\n",
      "      DURATION        : 00:00:39.829000000\n",
      "Stream mapping:\n",
      "  Stream #0:1 -> #0:0 (aac (native) -> pcm_s16le (native))\n",
      "Press [q] to stop, [?] for help\n",
      "Output #0, wav, to '../us_raw_audio/s6_03.wav':\n",
      "  Metadata:\n",
      "    ISFT            : Lavf58.45.100\n",
      "    Stream #0:0: Audio: pcm_s16le ([1][0][0][0] / 0x0001), 44100 Hz, stereo, s16, 1411 kb/s\n",
      "    Metadata:\n",
      "      title           : simple_aac_recording0\n",
      "      DURATION        : 00:00:39.829000000\n",
      "      encoder         : Lavc58.91.100 pcm_s16le\n",
      "size=    6861kB time=00:00:39.82 bitrate=1411.2kbits/s speed=1.03e+03x    \n",
      "video:0kB audio:6861kB subtitle:0kB other streams:0kB global headers:0kB muxing overhead: 0.001110%\n",
      "ffmpeg version 4.3 Copyright (c) 2000-2020 the FFmpeg developers\n",
      "  built with gcc 7.3.0 (crosstool-NG 1.23.0.449-a04d0)\n",
      "  configuration: --prefix=/opt/conda/conda-bld/ffmpeg_1597178665428/_h_env_placehold_placehold_placehold_placehold_placehold_placehold_placehold_placehold_placehold_placehold_placehold_placehold_placehold_placehold_placehold_placehold_placehold_placehold_placehold_placehold_placeh --cc=/opt/conda/conda-bld/ffmpeg_1597178665428/_build_env/bin/x86_64-conda_cos6-linux-gnu-cc --disable-doc --disable-openssl --enable-avresample --enable-gnutls --enable-hardcoded-tables --enable-libfreetype --enable-libopenh264 --enable-pic --enable-pthreads --enable-shared --disable-static --enable-version3 --enable-zlib --enable-libmp3lame\n",
      "  libavutil      56. 51.100 / 56. 51.100\n",
      "  libavcodec     58. 91.100 / 58. 91.100\n",
      "  libavformat    58. 45.100 / 58. 45.100\n",
      "  libavdevice    58. 10.100 / 58. 10.100\n",
      "  libavfilter     7. 85.100 /  7. 85.100\n",
      "  libavresample   4.  0.  0 /  4.  0.  0\n",
      "  libswscale      5.  7.100 /  5.  7.100\n",
      "  libswresample   3.  7.100 /  3.  7.100\n",
      "Input #0, matroska,webm, from '../us_raw/s1_03.mkv':\n",
      "  Metadata:\n",
      "    ENCODER         : Lavf60.16.100\n",
      "  Duration: 00:00:33.75, start: 0.000000, bitrate: 6338 kb/s\n",
      "    Stream #0:0: Video: h264 (High), yuv420p(tv, bt709, progressive), 1920x1080 [SAR 1:1 DAR 16:9], 60 fps, 60 tbr, 1k tbn, 120 tbc\n",
      "    Metadata:\n",
      "      DURATION        : 00:00:33.750000000\n",
      "    Stream #0:1: Audio: aac (LC), 48000 Hz, stereo, fltp\n",
      "    Metadata:\n",
      "      title           : simple_aac_recording0\n",
      "      DURATION        : 00:00:33.728000000\n",
      "Stream mapping:\n",
      "  Stream #0:1 -> #0:0 (aac (native) -> pcm_s16le (native))\n",
      "Press [q] to stop, [?] for help\n",
      "Output #0, wav, to '../us_raw_audio/s1_03.wav':\n",
      "  Metadata:\n",
      "    ISFT            : Lavf58.45.100\n",
      "    Stream #0:0: Audio: pcm_s16le ([1][0][0][0] / 0x0001), 44100 Hz, stereo, s16, 1411 kb/s\n",
      "    Metadata:\n",
      "      title           : simple_aac_recording0\n",
      "      DURATION        : 00:00:33.728000000\n",
      "      encoder         : Lavc58.91.100 pcm_s16le\n",
      "size=    5810kB time=00:00:33.72 bitrate=1411.2kbits/s speed=1.04e+03x    \n",
      "video:0kB audio:5810kB subtitle:0kB other streams:0kB global headers:0kB muxing overhead: 0.001311%\n",
      "ffmpeg version 4.3 Copyright (c) 2000-2020 the FFmpeg developers\n",
      "  built with gcc 7.3.0 (crosstool-NG 1.23.0.449-a04d0)\n",
      "  configuration: --prefix=/opt/conda/conda-bld/ffmpeg_1597178665428/_h_env_placehold_placehold_placehold_placehold_placehold_placehold_placehold_placehold_placehold_placehold_placehold_placehold_placehold_placehold_placehold_placehold_placehold_placehold_placehold_placehold_placeh --cc=/opt/conda/conda-bld/ffmpeg_1597178665428/_build_env/bin/x86_64-conda_cos6-linux-gnu-cc --disable-doc --disable-openssl --enable-avresample --enable-gnutls --enable-hardcoded-tables --enable-libfreetype --enable-libopenh264 --enable-pic --enable-pthreads --enable-shared --disable-static --enable-version3 --enable-zlib --enable-libmp3lame\n",
      "  libavutil      56. 51.100 / 56. 51.100\n",
      "  libavcodec     58. 91.100 / 58. 91.100\n",
      "  libavformat    58. 45.100 / 58. 45.100\n",
      "  libavdevice    58. 10.100 / 58. 10.100\n",
      "  libavfilter     7. 85.100 /  7. 85.100\n",
      "  libavresample   4.  0.  0 /  4.  0.  0\n",
      "  libswscale      5.  7.100 /  5.  7.100\n",
      "  libswresample   3.  7.100 /  3.  7.100\n",
      "Input #0, matroska,webm, from '../us_raw/s1_01.mkv':\n",
      "  Metadata:\n",
      "    ENCODER         : Lavf60.16.100\n",
      "  Duration: 00:00:33.33, start: 0.000000, bitrate: 6388 kb/s\n",
      "    Stream #0:0: Video: h264 (High), yuv420p(tv, bt709, progressive), 1920x1080 [SAR 1:1 DAR 16:9], 60 fps, 60 tbr, 1k tbn, 120 tbc\n",
      "    Metadata:\n",
      "      DURATION        : 00:00:33.334000000\n",
      "    Stream #0:1: Audio: aac (LC), 48000 Hz, stereo, fltp\n",
      "    Metadata:\n",
      "      title           : simple_aac_recording0\n",
      "      DURATION        : 00:00:33.301000000\n",
      "Stream mapping:\n",
      "  Stream #0:1 -> #0:0 (aac (native) -> pcm_s16le (native))\n",
      "Press [q] to stop, [?] for help\n",
      "Output #0, wav, to '../us_raw_audio/s1_01.wav':\n",
      "  Metadata:\n",
      "    ISFT            : Lavf58.45.100\n",
      "    Stream #0:0: Audio: pcm_s16le ([1][0][0][0] / 0x0001), 44100 Hz, stereo, s16, 1411 kb/s\n",
      "    Metadata:\n",
      "      title           : simple_aac_recording0\n",
      "      DURATION        : 00:00:33.301000000\n",
      "      encoder         : Lavc58.91.100 pcm_s16le\n",
      "size=    5737kB time=00:00:33.30 bitrate=1411.2kbits/s speed=1.17e+03x    \n",
      "video:0kB audio:5737kB subtitle:0kB other streams:0kB global headers:0kB muxing overhead: 0.001328%\n",
      "ffmpeg version 4.3 Copyright (c) 2000-2020 the FFmpeg developers\n",
      "  built with gcc 7.3.0 (crosstool-NG 1.23.0.449-a04d0)\n",
      "  configuration: --prefix=/opt/conda/conda-bld/ffmpeg_1597178665428/_h_env_placehold_placehold_placehold_placehold_placehold_placehold_placehold_placehold_placehold_placehold_placehold_placehold_placehold_placehold_placehold_placehold_placehold_placehold_placehold_placehold_placeh --cc=/opt/conda/conda-bld/ffmpeg_1597178665428/_build_env/bin/x86_64-conda_cos6-linux-gnu-cc --disable-doc --disable-openssl --enable-avresample --enable-gnutls --enable-hardcoded-tables --enable-libfreetype --enable-libopenh264 --enable-pic --enable-pthreads --enable-shared --disable-static --enable-version3 --enable-zlib --enable-libmp3lame\n",
      "  libavutil      56. 51.100 / 56. 51.100\n",
      "  libavcodec     58. 91.100 / 58. 91.100\n",
      "  libavformat    58. 45.100 / 58. 45.100\n",
      "  libavdevice    58. 10.100 / 58. 10.100\n",
      "  libavfilter     7. 85.100 /  7. 85.100\n",
      "  libavresample   4.  0.  0 /  4.  0.  0\n",
      "  libswscale      5.  7.100 /  5.  7.100\n",
      "  libswresample   3.  7.100 /  3.  7.100\n",
      "Input #0, matroska,webm, from '../us_raw/s3_01.mkv':\n",
      "  Metadata:\n",
      "    ENCODER         : Lavf60.16.100\n",
      "  Duration: 00:00:29.83, start: 0.000000, bitrate: 6341 kb/s\n",
      "    Stream #0:0: Video: h264 (High), yuv420p(tv, bt709, progressive), 1920x1080 [SAR 1:1 DAR 16:9], 60 fps, 60 tbr, 1k tbn, 120 tbc\n",
      "    Metadata:\n",
      "      DURATION        : 00:00:29.834000000\n",
      "    Stream #0:1: Audio: aac (LC), 48000 Hz, stereo, fltp\n",
      "    Metadata:\n",
      "      title           : simple_aac_recording0\n",
      "      DURATION        : 00:00:29.802000000\n",
      "Stream mapping:\n",
      "  Stream #0:1 -> #0:0 (aac (native) -> pcm_s16le (native))\n",
      "Press [q] to stop, [?] for help\n",
      "Output #0, wav, to '../us_raw_audio/s3_01.wav':\n",
      "  Metadata:\n",
      "    ISFT            : Lavf58.45.100\n",
      "    Stream #0:0: Audio: pcm_s16le ([1][0][0][0] / 0x0001), 44100 Hz, stereo, s16, 1411 kb/s\n",
      "    Metadata:\n",
      "      title           : simple_aac_recording0\n",
      "      DURATION        : 00:00:29.802000000\n",
      "      encoder         : Lavc58.91.100 pcm_s16le\n",
      "size=    5134kB time=00:00:29.80 bitrate=1411.2kbits/s speed=1.04e+03x    \n",
      "video:0kB audio:5134kB subtitle:0kB other streams:0kB global headers:0kB muxing overhead: 0.001484%\n",
      "ffmpeg version 4.3 Copyright (c) 2000-2020 the FFmpeg developers\n",
      "  built with gcc 7.3.0 (crosstool-NG 1.23.0.449-a04d0)\n",
      "  configuration: --prefix=/opt/conda/conda-bld/ffmpeg_1597178665428/_h_env_placehold_placehold_placehold_placehold_placehold_placehold_placehold_placehold_placehold_placehold_placehold_placehold_placehold_placehold_placehold_placehold_placehold_placehold_placehold_placehold_placeh --cc=/opt/conda/conda-bld/ffmpeg_1597178665428/_build_env/bin/x86_64-conda_cos6-linux-gnu-cc --disable-doc --disable-openssl --enable-avresample --enable-gnutls --enable-hardcoded-tables --enable-libfreetype --enable-libopenh264 --enable-pic --enable-pthreads --enable-shared --disable-static --enable-version3 --enable-zlib --enable-libmp3lame\n",
      "  libavutil      56. 51.100 / 56. 51.100\n",
      "  libavcodec     58. 91.100 / 58. 91.100\n",
      "  libavformat    58. 45.100 / 58. 45.100\n",
      "  libavdevice    58. 10.100 / 58. 10.100\n",
      "  libavfilter     7. 85.100 /  7. 85.100\n",
      "  libavresample   4.  0.  0 /  4.  0.  0\n",
      "  libswscale      5.  7.100 /  5.  7.100\n",
      "  libswresample   3.  7.100 /  3.  7.100\n",
      "Input #0, matroska,webm, from '../us_raw/s4_02.mkv':\n",
      "  Metadata:\n",
      "    ENCODER         : Lavf60.16.100\n",
      "  Duration: 00:00:36.30, start: 0.000000, bitrate: 6328 kb/s\n",
      "    Stream #0:0: Video: h264 (High), yuv420p(tv, bt709, progressive), 1920x1080 [SAR 1:1 DAR 16:9], 60 fps, 60 tbr, 1k tbn, 120 tbc\n",
      "    Metadata:\n",
      "      DURATION        : 00:00:36.300000000\n",
      "    Stream #0:1: Audio: aac (LC), 48000 Hz, stereo, fltp\n",
      "    Metadata:\n",
      "      title           : simple_aac_recording0\n",
      "      DURATION        : 00:00:36.266000000\n",
      "Stream mapping:\n",
      "  Stream #0:1 -> #0:0 (aac (native) -> pcm_s16le (native))\n",
      "Press [q] to stop, [?] for help\n",
      "Output #0, wav, to '../us_raw_audio/s4_02.wav':\n",
      "  Metadata:\n",
      "    ISFT            : Lavf58.45.100\n",
      "    Stream #0:0: Audio: pcm_s16le ([1][0][0][0] / 0x0001), 44100 Hz, stereo, s16, 1411 kb/s\n",
      "    Metadata:\n",
      "      title           : simple_aac_recording0\n",
      "      DURATION        : 00:00:36.266000000\n",
      "      encoder         : Lavc58.91.100 pcm_s16le\n",
      "size=    6248kB time=00:00:36.26 bitrate=1411.2kbits/s speed=1.07e+03x    \n",
      "video:0kB audio:6248kB subtitle:0kB other streams:0kB global headers:0kB muxing overhead: 0.001219%\n",
      "ffmpeg version 4.3 Copyright (c) 2000-2020 the FFmpeg developers\n",
      "  built with gcc 7.3.0 (crosstool-NG 1.23.0.449-a04d0)\n",
      "  configuration: --prefix=/opt/conda/conda-bld/ffmpeg_1597178665428/_h_env_placehold_placehold_placehold_placehold_placehold_placehold_placehold_placehold_placehold_placehold_placehold_placehold_placehold_placehold_placehold_placehold_placehold_placehold_placehold_placehold_placeh --cc=/opt/conda/conda-bld/ffmpeg_1597178665428/_build_env/bin/x86_64-conda_cos6-linux-gnu-cc --disable-doc --disable-openssl --enable-avresample --enable-gnutls --enable-hardcoded-tables --enable-libfreetype --enable-libopenh264 --enable-pic --enable-pthreads --enable-shared --disable-static --enable-version3 --enable-zlib --enable-libmp3lame\n",
      "  libavutil      56. 51.100 / 56. 51.100\n",
      "  libavcodec     58. 91.100 / 58. 91.100\n",
      "  libavformat    58. 45.100 / 58. 45.100\n",
      "  libavdevice    58. 10.100 / 58. 10.100\n",
      "  libavfilter     7. 85.100 /  7. 85.100\n",
      "  libavresample   4.  0.  0 /  4.  0.  0\n",
      "  libswscale      5.  7.100 /  5.  7.100\n",
      "  libswresample   3.  7.100 /  3.  7.100\n",
      "Input #0, matroska,webm, from '../us_raw/s3_02.mkv':\n",
      "  Metadata:\n",
      "    ENCODER         : Lavf60.16.100\n",
      "  Duration: 00:00:30.03, start: 0.000000, bitrate: 6241 kb/s\n",
      "    Stream #0:0: Video: h264 (High), yuv420p(tv, bt709, progressive), 1920x1080 [SAR 1:1 DAR 16:9], 60 fps, 60 tbr, 1k tbn, 120 tbc\n",
      "    Metadata:\n",
      "      DURATION        : 00:00:30.034000000\n",
      "    Stream #0:1: Audio: aac (LC), 48000 Hz, stereo, fltp\n",
      "    Metadata:\n",
      "      title           : simple_aac_recording0\n",
      "      DURATION        : 00:00:29.994000000\n",
      "Stream mapping:\n",
      "  Stream #0:1 -> #0:0 (aac (native) -> pcm_s16le (native))\n",
      "Press [q] to stop, [?] for help\n",
      "Output #0, wav, to '../us_raw_audio/s3_02.wav':\n",
      "  Metadata:\n",
      "    ISFT            : Lavf58.45.100\n",
      "    Stream #0:0: Audio: pcm_s16le ([1][0][0][0] / 0x0001), 44100 Hz, stereo, s16, 1411 kb/s\n",
      "    Metadata:\n",
      "      title           : simple_aac_recording0\n",
      "      DURATION        : 00:00:29.994000000\n",
      "      encoder         : Lavc58.91.100 pcm_s16le\n",
      "size=    5167kB time=00:00:29.99 bitrate=1411.2kbits/s speed=1.04e+03x    \n",
      "video:0kB audio:5167kB subtitle:0kB other streams:0kB global headers:0kB muxing overhead: 0.001474%\n",
      "ffmpeg version 4.3 Copyright (c) 2000-2020 the FFmpeg developers\n",
      "  built with gcc 7.3.0 (crosstool-NG 1.23.0.449-a04d0)\n",
      "  configuration: --prefix=/opt/conda/conda-bld/ffmpeg_1597178665428/_h_env_placehold_placehold_placehold_placehold_placehold_placehold_placehold_placehold_placehold_placehold_placehold_placehold_placehold_placehold_placehold_placehold_placehold_placehold_placehold_placehold_placeh --cc=/opt/conda/conda-bld/ffmpeg_1597178665428/_build_env/bin/x86_64-conda_cos6-linux-gnu-cc --disable-doc --disable-openssl --enable-avresample --enable-gnutls --enable-hardcoded-tables --enable-libfreetype --enable-libopenh264 --enable-pic --enable-pthreads --enable-shared --disable-static --enable-version3 --enable-zlib --enable-libmp3lame\n",
      "  libavutil      56. 51.100 / 56. 51.100\n",
      "  libavcodec     58. 91.100 / 58. 91.100\n",
      "  libavformat    58. 45.100 / 58. 45.100\n",
      "  libavdevice    58. 10.100 / 58. 10.100\n",
      "  libavfilter     7. 85.100 /  7. 85.100\n",
      "  libavresample   4.  0.  0 /  4.  0.  0\n",
      "  libswscale      5.  7.100 /  5.  7.100\n",
      "  libswresample   3.  7.100 /  3.  7.100\n",
      "Input #0, matroska,webm, from '../us_raw/s6_05.mkv':\n",
      "  Metadata:\n",
      "    ENCODER         : Lavf60.16.100\n",
      "  Duration: 00:00:40.37, start: 0.000000, bitrate: 6664 kb/s\n",
      "    Stream #0:0: Video: h264 (High), yuv420p(tv, bt709, progressive), 1920x1080 [SAR 1:1 DAR 16:9], 60 fps, 60 tbr, 1k tbn, 120 tbc\n",
      "    Metadata:\n",
      "      DURATION        : 00:00:40.367000000\n",
      "    Stream #0:1: Audio: aac (LC), 48000 Hz, stereo, fltp\n",
      "    Metadata:\n",
      "      title           : simple_aac_recording0\n",
      "      DURATION        : 00:00:40.320000000\n",
      "Stream mapping:\n",
      "  Stream #0:1 -> #0:0 (aac (native) -> pcm_s16le (native))\n",
      "Press [q] to stop, [?] for help\n",
      "Output #0, wav, to '../us_raw_audio/s6_05.wav':\n",
      "  Metadata:\n",
      "    ISFT            : Lavf58.45.100\n",
      "    Stream #0:0: Audio: pcm_s16le ([1][0][0][0] / 0x0001), 44100 Hz, stereo, s16, 1411 kb/s\n",
      "    Metadata:\n",
      "      title           : simple_aac_recording0\n",
      "      DURATION        : 00:00:40.320000000\n",
      "      encoder         : Lavc58.91.100 pcm_s16le\n",
      "size=    6946kB time=00:00:40.32 bitrate=1411.2kbits/s speed=1.08e+03x    \n",
      "video:0kB audio:6946kB subtitle:0kB other streams:0kB global headers:0kB muxing overhead: 0.001097%\n",
      "ffmpeg version 4.3 Copyright (c) 2000-2020 the FFmpeg developers\n",
      "  built with gcc 7.3.0 (crosstool-NG 1.23.0.449-a04d0)\n",
      "  configuration: --prefix=/opt/conda/conda-bld/ffmpeg_1597178665428/_h_env_placehold_placehold_placehold_placehold_placehold_placehold_placehold_placehold_placehold_placehold_placehold_placehold_placehold_placehold_placehold_placehold_placehold_placehold_placehold_placehold_placeh --cc=/opt/conda/conda-bld/ffmpeg_1597178665428/_build_env/bin/x86_64-conda_cos6-linux-gnu-cc --disable-doc --disable-openssl --enable-avresample --enable-gnutls --enable-hardcoded-tables --enable-libfreetype --enable-libopenh264 --enable-pic --enable-pthreads --enable-shared --disable-static --enable-version3 --enable-zlib --enable-libmp3lame\n",
      "  libavutil      56. 51.100 / 56. 51.100\n",
      "  libavcodec     58. 91.100 / 58. 91.100\n",
      "  libavformat    58. 45.100 / 58. 45.100\n",
      "  libavdevice    58. 10.100 / 58. 10.100\n",
      "  libavfilter     7. 85.100 /  7. 85.100\n",
      "  libavresample   4.  0.  0 /  4.  0.  0\n",
      "  libswscale      5.  7.100 /  5.  7.100\n",
      "  libswresample   3.  7.100 /  3.  7.100\n",
      "Input #0, matroska,webm, from '../us_raw/s2_03.mkv':\n",
      "  Metadata:\n",
      "    ENCODER         : Lavf60.16.100\n",
      "  Duration: 00:00:24.25, start: 0.000000, bitrate: 6254 kb/s\n",
      "    Stream #0:0: Video: h264 (High), yuv420p(tv, bt709, progressive), 1920x1080 [SAR 1:1 DAR 16:9], 60 fps, 60 tbr, 1k tbn, 120 tbc\n",
      "    Metadata:\n",
      "      DURATION        : 00:00:24.250000000\n",
      "    Stream #0:1: Audio: aac (LC), 48000 Hz, stereo, fltp\n",
      "    Metadata:\n",
      "      title           : simple_aac_recording0\n",
      "      DURATION        : 00:00:24.234000000\n",
      "Stream mapping:\n",
      "  Stream #0:1 -> #0:0 (aac (native) -> pcm_s16le (native))\n",
      "Press [q] to stop, [?] for help\n",
      "Output #0, wav, to '../us_raw_audio/s2_03.wav':\n",
      "  Metadata:\n",
      "    ISFT            : Lavf58.45.100\n",
      "    Stream #0:0: Audio: pcm_s16le ([1][0][0][0] / 0x0001), 44100 Hz, stereo, s16, 1411 kb/s\n",
      "    Metadata:\n",
      "      title           : simple_aac_recording0\n",
      "      DURATION        : 00:00:24.234000000\n",
      "      encoder         : Lavc58.91.100 pcm_s16le\n",
      "size=    4175kB time=00:00:24.23 bitrate=1411.2kbits/s speed=1.04e+03x    \n",
      "video:0kB audio:4175kB subtitle:0kB other streams:0kB global headers:0kB muxing overhead: 0.001825%\n",
      "ffmpeg version 4.3 Copyright (c) 2000-2020 the FFmpeg developers\n",
      "  built with gcc 7.3.0 (crosstool-NG 1.23.0.449-a04d0)\n",
      "  configuration: --prefix=/opt/conda/conda-bld/ffmpeg_1597178665428/_h_env_placehold_placehold_placehold_placehold_placehold_placehold_placehold_placehold_placehold_placehold_placehold_placehold_placehold_placehold_placehold_placehold_placehold_placehold_placehold_placehold_placeh --cc=/opt/conda/conda-bld/ffmpeg_1597178665428/_build_env/bin/x86_64-conda_cos6-linux-gnu-cc --disable-doc --disable-openssl --enable-avresample --enable-gnutls --enable-hardcoded-tables --enable-libfreetype --enable-libopenh264 --enable-pic --enable-pthreads --enable-shared --disable-static --enable-version3 --enable-zlib --enable-libmp3lame\n",
      "  libavutil      56. 51.100 / 56. 51.100\n",
      "  libavcodec     58. 91.100 / 58. 91.100\n",
      "  libavformat    58. 45.100 / 58. 45.100\n",
      "  libavdevice    58. 10.100 / 58. 10.100\n",
      "  libavfilter     7. 85.100 /  7. 85.100\n",
      "  libavresample   4.  0.  0 /  4.  0.  0\n",
      "  libswscale      5.  7.100 /  5.  7.100\n",
      "  libswresample   3.  7.100 /  3.  7.100\n",
      "Input #0, matroska,webm, from '../us_raw/s1_04.mkv':\n",
      "  Metadata:\n",
      "    ENCODER         : Lavf60.16.100\n",
      "  Duration: 00:00:33.60, start: 0.000000, bitrate: 6254 kb/s\n",
      "    Stream #0:0: Video: h264 (High), yuv420p(tv, bt709, progressive), 1920x1080 [SAR 1:1 DAR 16:9], 60 fps, 60 tbr, 1k tbn, 120 tbc\n",
      "    Metadata:\n",
      "      DURATION        : 00:00:33.600000000\n",
      "    Stream #0:1: Audio: aac (LC), 48000 Hz, stereo, fltp\n",
      "    Metadata:\n",
      "      title           : simple_aac_recording0\n",
      "      DURATION        : 00:00:33.536000000\n",
      "Stream mapping:\n",
      "  Stream #0:1 -> #0:0 (aac (native) -> pcm_s16le (native))\n",
      "Press [q] to stop, [?] for help\n",
      "Output #0, wav, to '../us_raw_audio/s1_04.wav':\n",
      "  Metadata:\n",
      "    ISFT            : Lavf58.45.100\n",
      "    Stream #0:0: Audio: pcm_s16le ([1][0][0][0] / 0x0001), 44100 Hz, stereo, s16, 1411 kb/s\n",
      "    Metadata:\n",
      "      title           : simple_aac_recording0\n",
      "      DURATION        : 00:00:33.536000000\n",
      "      encoder         : Lavc58.91.100 pcm_s16le\n",
      "size=    5777kB time=00:00:33.53 bitrate=1411.2kbits/s speed=1.07e+03x    \n",
      "video:0kB audio:5777kB subtitle:0kB other streams:0kB global headers:0kB muxing overhead: 0.001319%\n",
      "ffmpeg version 4.3 Copyright (c) 2000-2020 the FFmpeg developers\n",
      "  built with gcc 7.3.0 (crosstool-NG 1.23.0.449-a04d0)\n",
      "  configuration: --prefix=/opt/conda/conda-bld/ffmpeg_1597178665428/_h_env_placehold_placehold_placehold_placehold_placehold_placehold_placehold_placehold_placehold_placehold_placehold_placehold_placehold_placehold_placehold_placehold_placehold_placehold_placehold_placehold_placeh --cc=/opt/conda/conda-bld/ffmpeg_1597178665428/_build_env/bin/x86_64-conda_cos6-linux-gnu-cc --disable-doc --disable-openssl --enable-avresample --enable-gnutls --enable-hardcoded-tables --enable-libfreetype --enable-libopenh264 --enable-pic --enable-pthreads --enable-shared --disable-static --enable-version3 --enable-zlib --enable-libmp3lame\n",
      "  libavutil      56. 51.100 / 56. 51.100\n",
      "  libavcodec     58. 91.100 / 58. 91.100\n",
      "  libavformat    58. 45.100 / 58. 45.100\n",
      "  libavdevice    58. 10.100 / 58. 10.100\n",
      "  libavfilter     7. 85.100 /  7. 85.100\n",
      "  libavresample   4.  0.  0 /  4.  0.  0\n",
      "  libswscale      5.  7.100 /  5.  7.100\n",
      "  libswresample   3.  7.100 /  3.  7.100\n",
      "Input #0, matroska,webm, from '../us_raw/s2_04.mkv':\n",
      "  Metadata:\n",
      "    ENCODER         : Lavf60.16.100\n",
      "  Duration: 00:00:24.50, start: 0.000000, bitrate: 6285 kb/s\n",
      "    Stream #0:0: Video: h264 (High), yuv420p(tv, bt709, progressive), 1920x1080 [SAR 1:1 DAR 16:9], 60 fps, 60 tbr, 1k tbn, 120 tbc\n",
      "    Metadata:\n",
      "      DURATION        : 00:00:24.500000000\n",
      "    Stream #0:1: Audio: aac (LC), 48000 Hz, stereo, fltp\n",
      "    Metadata:\n",
      "      title           : simple_aac_recording0\n",
      "      DURATION        : 00:00:24.469000000\n",
      "Stream mapping:\n",
      "  Stream #0:1 -> #0:0 (aac (native) -> pcm_s16le (native))\n",
      "Press [q] to stop, [?] for help\n",
      "Output #0, wav, to '../us_raw_audio/s2_04.wav':\n",
      "  Metadata:\n",
      "    ISFT            : Lavf58.45.100\n",
      "    Stream #0:0: Audio: pcm_s16le ([1][0][0][0] / 0x0001), 44100 Hz, stereo, s16, 1411 kb/s\n",
      "    Metadata:\n",
      "      title           : simple_aac_recording0\n",
      "      DURATION        : 00:00:24.469000000\n",
      "      encoder         : Lavc58.91.100 pcm_s16le\n",
      "size=    4215kB time=00:00:24.46 bitrate=1411.2kbits/s speed=1.05e+03x    \n",
      "video:0kB audio:4215kB subtitle:0kB other streams:0kB global headers:0kB muxing overhead: 0.001807%\n",
      "ffmpeg version 4.3 Copyright (c) 2000-2020 the FFmpeg developers\n",
      "  built with gcc 7.3.0 (crosstool-NG 1.23.0.449-a04d0)\n",
      "  configuration: --prefix=/opt/conda/conda-bld/ffmpeg_1597178665428/_h_env_placehold_placehold_placehold_placehold_placehold_placehold_placehold_placehold_placehold_placehold_placehold_placehold_placehold_placehold_placehold_placehold_placehold_placehold_placehold_placehold_placeh --cc=/opt/conda/conda-bld/ffmpeg_1597178665428/_build_env/bin/x86_64-conda_cos6-linux-gnu-cc --disable-doc --disable-openssl --enable-avresample --enable-gnutls --enable-hardcoded-tables --enable-libfreetype --enable-libopenh264 --enable-pic --enable-pthreads --enable-shared --disable-static --enable-version3 --enable-zlib --enable-libmp3lame\n",
      "  libavutil      56. 51.100 / 56. 51.100\n",
      "  libavcodec     58. 91.100 / 58. 91.100\n",
      "  libavformat    58. 45.100 / 58. 45.100\n",
      "  libavdevice    58. 10.100 / 58. 10.100\n",
      "  libavfilter     7. 85.100 /  7. 85.100\n",
      "  libavresample   4.  0.  0 /  4.  0.  0\n",
      "  libswscale      5.  7.100 /  5.  7.100\n",
      "  libswresample   3.  7.100 /  3.  7.100\n",
      "Input #0, matroska,webm, from '../us_raw/s1_02.mkv':\n",
      "  Metadata:\n",
      "    ENCODER         : Lavf60.16.100\n",
      "  Duration: 00:00:33.50, start: 0.000000, bitrate: 6169 kb/s\n",
      "    Stream #0:0: Video: h264 (High), yuv420p(tv, bt709, progressive), 1920x1080 [SAR 1:1 DAR 16:9], 60 fps, 60 tbr, 1k tbn, 120 tbc\n",
      "    Metadata:\n",
      "      DURATION        : 00:00:33.500000000\n",
      "    Stream #0:1: Audio: aac (LC), 48000 Hz, stereo, fltp\n",
      "    Metadata:\n",
      "      title           : simple_aac_recording0\n",
      "      DURATION        : 00:00:33.450000000\n",
      "Stream mapping:\n",
      "  Stream #0:1 -> #0:0 (aac (native) -> pcm_s16le (native))\n",
      "Press [q] to stop, [?] for help\n",
      "Output #0, wav, to '../us_raw_audio/s1_02.wav':\n",
      "  Metadata:\n",
      "    ISFT            : Lavf58.45.100\n",
      "    Stream #0:0: Audio: pcm_s16le ([1][0][0][0] / 0x0001), 44100 Hz, stereo, s16, 1411 kb/s\n",
      "    Metadata:\n",
      "      title           : simple_aac_recording0\n",
      "      DURATION        : 00:00:33.450000000\n",
      "      encoder         : Lavc58.91.100 pcm_s16le\n",
      "size=    5762kB time=00:00:33.45 bitrate=1411.2kbits/s speed=1.02e+03x    \n",
      "video:0kB audio:5762kB subtitle:0kB other streams:0kB global headers:0kB muxing overhead: 0.001322%\n",
      "ffmpeg version 4.3 Copyright (c) 2000-2020 the FFmpeg developers\n",
      "  built with gcc 7.3.0 (crosstool-NG 1.23.0.449-a04d0)\n",
      "  configuration: --prefix=/opt/conda/conda-bld/ffmpeg_1597178665428/_h_env_placehold_placehold_placehold_placehold_placehold_placehold_placehold_placehold_placehold_placehold_placehold_placehold_placehold_placehold_placehold_placehold_placehold_placehold_placehold_placehold_placeh --cc=/opt/conda/conda-bld/ffmpeg_1597178665428/_build_env/bin/x86_64-conda_cos6-linux-gnu-cc --disable-doc --disable-openssl --enable-avresample --enable-gnutls --enable-hardcoded-tables --enable-libfreetype --enable-libopenh264 --enable-pic --enable-pthreads --enable-shared --disable-static --enable-version3 --enable-zlib --enable-libmp3lame\n",
      "  libavutil      56. 51.100 / 56. 51.100\n",
      "  libavcodec     58. 91.100 / 58. 91.100\n",
      "  libavformat    58. 45.100 / 58. 45.100\n",
      "  libavdevice    58. 10.100 / 58. 10.100\n",
      "  libavfilter     7. 85.100 /  7. 85.100\n",
      "  libavresample   4.  0.  0 /  4.  0.  0\n",
      "  libswscale      5.  7.100 /  5.  7.100\n",
      "  libswresample   3.  7.100 /  3.  7.100\n",
      "Input #0, matroska,webm, from '../us_raw/s2_02.mkv':\n",
      "  Metadata:\n",
      "    ENCODER         : Lavf60.16.100\n",
      "  Duration: 00:00:24.10, start: 0.000000, bitrate: 6405 kb/s\n",
      "    Stream #0:0: Video: h264 (High), yuv420p(tv, bt709, progressive), 1920x1080 [SAR 1:1 DAR 16:9], 60 fps, 60 tbr, 1k tbn, 120 tbc\n",
      "    Metadata:\n",
      "      DURATION        : 00:00:24.100000000\n",
      "    Stream #0:1: Audio: aac (LC), 48000 Hz, stereo, fltp\n",
      "    Metadata:\n",
      "      title           : simple_aac_recording0\n",
      "      DURATION        : 00:00:24.064000000\n",
      "Stream mapping:\n",
      "  Stream #0:1 -> #0:0 (aac (native) -> pcm_s16le (native))\n",
      "Press [q] to stop, [?] for help\n",
      "Output #0, wav, to '../us_raw_audio/s2_02.wav':\n",
      "  Metadata:\n",
      "    ISFT            : Lavf58.45.100\n",
      "    Stream #0:0: Audio: pcm_s16le ([1][0][0][0] / 0x0001), 44100 Hz, stereo, s16, 1411 kb/s\n",
      "    Metadata:\n",
      "      title           : simple_aac_recording0\n",
      "      DURATION        : 00:00:24.064000000\n",
      "      encoder         : Lavc58.91.100 pcm_s16le\n",
      "size=    4145kB time=00:00:24.06 bitrate=1411.2kbits/s speed=1e+03x    \n",
      "video:0kB audio:4145kB subtitle:0kB other streams:0kB global headers:0kB muxing overhead: 0.001838%\n",
      "ffmpeg version 4.3 Copyright (c) 2000-2020 the FFmpeg developers\n",
      "  built with gcc 7.3.0 (crosstool-NG 1.23.0.449-a04d0)\n",
      "  configuration: --prefix=/opt/conda/conda-bld/ffmpeg_1597178665428/_h_env_placehold_placehold_placehold_placehold_placehold_placehold_placehold_placehold_placehold_placehold_placehold_placehold_placehold_placehold_placehold_placehold_placehold_placehold_placehold_placehold_placeh --cc=/opt/conda/conda-bld/ffmpeg_1597178665428/_build_env/bin/x86_64-conda_cos6-linux-gnu-cc --disable-doc --disable-openssl --enable-avresample --enable-gnutls --enable-hardcoded-tables --enable-libfreetype --enable-libopenh264 --enable-pic --enable-pthreads --enable-shared --disable-static --enable-version3 --enable-zlib --enable-libmp3lame\n",
      "  libavutil      56. 51.100 / 56. 51.100\n",
      "  libavcodec     58. 91.100 / 58. 91.100\n",
      "  libavformat    58. 45.100 / 58. 45.100\n",
      "  libavdevice    58. 10.100 / 58. 10.100\n",
      "  libavfilter     7. 85.100 /  7. 85.100\n",
      "  libavresample   4.  0.  0 /  4.  0.  0\n",
      "  libswscale      5.  7.100 /  5.  7.100\n",
      "  libswresample   3.  7.100 /  3.  7.100\n",
      "Input #0, matroska,webm, from '../us_raw/s5_01.mkv':\n",
      "  Metadata:\n",
      "    ENCODER         : Lavf60.16.100\n",
      "  Duration: 00:00:44.18, start: 0.000000, bitrate: 6418 kb/s\n",
      "    Stream #0:0: Video: h264 (High), yuv420p(tv, bt709, progressive), 1920x1080 [SAR 1:1 DAR 16:9], 60 fps, 60 tbr, 1k tbn, 120 tbc\n",
      "    Metadata:\n",
      "      DURATION        : 00:00:44.184000000\n",
      "    Stream #0:1: Audio: aac (LC), 48000 Hz, stereo, fltp\n",
      "    Metadata:\n",
      "      title           : simple_aac_recording0\n",
      "      DURATION        : 00:00:44.138000000\n",
      "Stream mapping:\n",
      "  Stream #0:1 -> #0:0 (aac (native) -> pcm_s16le (native))\n",
      "Press [q] to stop, [?] for help\n",
      "Output #0, wav, to '../us_raw_audio/s5_01.wav':\n",
      "  Metadata:\n",
      "    ISFT            : Lavf58.45.100\n",
      "    Stream #0:0: Audio: pcm_s16le ([1][0][0][0] / 0x0001), 44100 Hz, stereo, s16, 1411 kb/s\n",
      "    Metadata:\n",
      "      title           : simple_aac_recording0\n",
      "      DURATION        : 00:00:44.138000000\n",
      "      encoder         : Lavc58.91.100 pcm_s16le\n",
      "size=    7604kB time=00:00:44.13 bitrate=1411.2kbits/s speed=1.05e+03x    \n",
      "video:0kB audio:7604kB subtitle:0kB other streams:0kB global headers:0kB muxing overhead: 0.001002%\n",
      "ffmpeg version 4.3 Copyright (c) 2000-2020 the FFmpeg developers\n",
      "  built with gcc 7.3.0 (crosstool-NG 1.23.0.449-a04d0)\n",
      "  configuration: --prefix=/opt/conda/conda-bld/ffmpeg_1597178665428/_h_env_placehold_placehold_placehold_placehold_placehold_placehold_placehold_placehold_placehold_placehold_placehold_placehold_placehold_placehold_placehold_placehold_placehold_placehold_placehold_placehold_placeh --cc=/opt/conda/conda-bld/ffmpeg_1597178665428/_build_env/bin/x86_64-conda_cos6-linux-gnu-cc --disable-doc --disable-openssl --enable-avresample --enable-gnutls --enable-hardcoded-tables --enable-libfreetype --enable-libopenh264 --enable-pic --enable-pthreads --enable-shared --disable-static --enable-version3 --enable-zlib --enable-libmp3lame\n",
      "  libavutil      56. 51.100 / 56. 51.100\n",
      "  libavcodec     58. 91.100 / 58. 91.100\n",
      "  libavformat    58. 45.100 / 58. 45.100\n",
      "  libavdevice    58. 10.100 / 58. 10.100\n",
      "  libavfilter     7. 85.100 /  7. 85.100\n",
      "  libavresample   4.  0.  0 /  4.  0.  0\n",
      "  libswscale      5.  7.100 /  5.  7.100\n",
      "  libswresample   3.  7.100 /  3.  7.100\n",
      "Input #0, matroska,webm, from '../us_raw/s2_05.mkv':\n",
      "  Metadata:\n",
      "    ENCODER         : Lavf60.16.100\n",
      "  Duration: 00:00:23.80, start: 0.000000, bitrate: 6334 kb/s\n",
      "    Stream #0:0: Video: h264 (High), yuv420p(tv, bt709, progressive), 1920x1080 [SAR 1:1 DAR 16:9], 60 fps, 60 tbr, 1k tbn, 120 tbc\n",
      "    Metadata:\n",
      "      DURATION        : 00:00:23.800000000\n",
      "    Stream #0:1: Audio: aac (LC), 48000 Hz, stereo, fltp\n",
      "    Metadata:\n",
      "      title           : simple_aac_recording0\n",
      "      DURATION        : 00:00:23.765000000\n",
      "Stream mapping:\n",
      "  Stream #0:1 -> #0:0 (aac (native) -> pcm_s16le (native))\n",
      "Press [q] to stop, [?] for help\n",
      "Output #0, wav, to '../us_raw_audio/s2_05.wav':\n",
      "  Metadata:\n",
      "    ISFT            : Lavf58.45.100\n",
      "    Stream #0:0: Audio: pcm_s16le ([1][0][0][0] / 0x0001), 44100 Hz, stereo, s16, 1411 kb/s\n",
      "    Metadata:\n",
      "      title           : simple_aac_recording0\n",
      "      DURATION        : 00:00:23.765000000\n",
      "      encoder         : Lavc58.91.100 pcm_s16le\n",
      "size=    4094kB time=00:00:23.76 bitrate=1411.2kbits/s speed=1e+03x    \n",
      "video:0kB audio:4094kB subtitle:0kB other streams:0kB global headers:0kB muxing overhead: 0.001861%\n",
      "ffmpeg version 4.3 Copyright (c) 2000-2020 the FFmpeg developers\n",
      "  built with gcc 7.3.0 (crosstool-NG 1.23.0.449-a04d0)\n",
      "  configuration: --prefix=/opt/conda/conda-bld/ffmpeg_1597178665428/_h_env_placehold_placehold_placehold_placehold_placehold_placehold_placehold_placehold_placehold_placehold_placehold_placehold_placehold_placehold_placehold_placehold_placehold_placehold_placehold_placehold_placeh --cc=/opt/conda/conda-bld/ffmpeg_1597178665428/_build_env/bin/x86_64-conda_cos6-linux-gnu-cc --disable-doc --disable-openssl --enable-avresample --enable-gnutls --enable-hardcoded-tables --enable-libfreetype --enable-libopenh264 --enable-pic --enable-pthreads --enable-shared --disable-static --enable-version3 --enable-zlib --enable-libmp3lame\n",
      "  libavutil      56. 51.100 / 56. 51.100\n",
      "  libavcodec     58. 91.100 / 58. 91.100\n",
      "  libavformat    58. 45.100 / 58. 45.100\n",
      "  libavdevice    58. 10.100 / 58. 10.100\n",
      "  libavfilter     7. 85.100 /  7. 85.100\n",
      "  libavresample   4.  0.  0 /  4.  0.  0\n",
      "  libswscale      5.  7.100 /  5.  7.100\n",
      "  libswresample   3.  7.100 /  3.  7.100\n",
      "Input #0, matroska,webm, from '../us_raw/s2_01.mkv':\n",
      "  Metadata:\n",
      "    ENCODER         : Lavf60.16.100\n",
      "  Duration: 00:00:24.40, start: 0.000000, bitrate: 6558 kb/s\n",
      "    Stream #0:0: Video: h264 (High), yuv420p(tv, bt709, progressive), 1920x1080 [SAR 1:1 DAR 16:9], 60 fps, 60 tbr, 1k tbn, 120 tbc\n",
      "    Metadata:\n",
      "      DURATION        : 00:00:24.400000000\n",
      "    Stream #0:1: Audio: aac (LC), 48000 Hz, stereo, fltp\n",
      "    Metadata:\n",
      "      title           : simple_aac_recording0\n",
      "      DURATION        : 00:00:24.362000000\n",
      "Stream mapping:\n",
      "  Stream #0:1 -> #0:0 (aac (native) -> pcm_s16le (native))\n",
      "Press [q] to stop, [?] for help\n",
      "Output #0, wav, to '../us_raw_audio/s2_01.wav':\n",
      "  Metadata:\n",
      "    ISFT            : Lavf58.45.100\n",
      "    Stream #0:0: Audio: pcm_s16le ([1][0][0][0] / 0x0001), 44100 Hz, stereo, s16, 1411 kb/s\n",
      "    Metadata:\n",
      "      title           : simple_aac_recording0\n",
      "      DURATION        : 00:00:24.362000000\n",
      "      encoder         : Lavc58.91.100 pcm_s16le\n",
      "size=    4197kB time=00:00:24.36 bitrate=1411.2kbits/s speed=1.04e+03x    \n",
      "video:0kB audio:4197kB subtitle:0kB other streams:0kB global headers:0kB muxing overhead: 0.001815%\n",
      "ffmpeg version 4.3 Copyright (c) 2000-2020 the FFmpeg developers\n",
      "  built with gcc 7.3.0 (crosstool-NG 1.23.0.449-a04d0)\n",
      "  configuration: --prefix=/opt/conda/conda-bld/ffmpeg_1597178665428/_h_env_placehold_placehold_placehold_placehold_placehold_placehold_placehold_placehold_placehold_placehold_placehold_placehold_placehold_placehold_placehold_placehold_placehold_placehold_placehold_placehold_placeh --cc=/opt/conda/conda-bld/ffmpeg_1597178665428/_build_env/bin/x86_64-conda_cos6-linux-gnu-cc --disable-doc --disable-openssl --enable-avresample --enable-gnutls --enable-hardcoded-tables --enable-libfreetype --enable-libopenh264 --enable-pic --enable-pthreads --enable-shared --disable-static --enable-version3 --enable-zlib --enable-libmp3lame\n",
      "  libavutil      56. 51.100 / 56. 51.100\n",
      "  libavcodec     58. 91.100 / 58. 91.100\n",
      "  libavformat    58. 45.100 / 58. 45.100\n",
      "  libavdevice    58. 10.100 / 58. 10.100\n",
      "  libavfilter     7. 85.100 /  7. 85.100\n",
      "  libavresample   4.  0.  0 /  4.  0.  0\n",
      "  libswscale      5.  7.100 /  5.  7.100\n",
      "  libswresample   3.  7.100 /  3.  7.100\n",
      "Input #0, matroska,webm, from '../us_raw/s1_05.mkv':\n",
      "  Metadata:\n",
      "    ENCODER         : Lavf60.16.100\n",
      "  Duration: 00:00:34.15, start: 0.000000, bitrate: 6182 kb/s\n",
      "    Stream #0:0: Video: h264 (High), yuv420p(tv, bt709, progressive), 1920x1080 [SAR 1:1 DAR 16:9], 60 fps, 60 tbr, 1k tbn, 120 tbc\n",
      "    Metadata:\n",
      "      DURATION        : 00:00:34.150000000\n",
      "    Stream #0:1: Audio: aac (LC), 48000 Hz, stereo, fltp\n",
      "    Metadata:\n",
      "      title           : simple_aac_recording0\n",
      "      DURATION        : 00:00:34.090000000\n",
      "Stream mapping:\n",
      "  Stream #0:1 -> #0:0 (aac (native) -> pcm_s16le (native))\n",
      "Press [q] to stop, [?] for help\n",
      "Output #0, wav, to '../us_raw_audio/s1_05.wav':\n",
      "  Metadata:\n",
      "    ISFT            : Lavf58.45.100\n",
      "    Stream #0:0: Audio: pcm_s16le ([1][0][0][0] / 0x0001), 44100 Hz, stereo, s16, 1411 kb/s\n",
      "    Metadata:\n",
      "      title           : simple_aac_recording0\n",
      "      DURATION        : 00:00:34.090000000\n",
      "      encoder         : Lavc58.91.100 pcm_s16le\n",
      "size=    5873kB time=00:00:34.09 bitrate=1411.2kbits/s speed=1.02e+03x    \n",
      "video:0kB audio:5873kB subtitle:0kB other streams:0kB global headers:0kB muxing overhead: 0.001297%\n",
      "ffmpeg version 4.3 Copyright (c) 2000-2020 the FFmpeg developers\n",
      "  built with gcc 7.3.0 (crosstool-NG 1.23.0.449-a04d0)\n",
      "  configuration: --prefix=/opt/conda/conda-bld/ffmpeg_1597178665428/_h_env_placehold_placehold_placehold_placehold_placehold_placehold_placehold_placehold_placehold_placehold_placehold_placehold_placehold_placehold_placehold_placehold_placehold_placehold_placehold_placehold_placeh --cc=/opt/conda/conda-bld/ffmpeg_1597178665428/_build_env/bin/x86_64-conda_cos6-linux-gnu-cc --disable-doc --disable-openssl --enable-avresample --enable-gnutls --enable-hardcoded-tables --enable-libfreetype --enable-libopenh264 --enable-pic --enable-pthreads --enable-shared --disable-static --enable-version3 --enable-zlib --enable-libmp3lame\n",
      "  libavutil      56. 51.100 / 56. 51.100\n",
      "  libavcodec     58. 91.100 / 58. 91.100\n",
      "  libavformat    58. 45.100 / 58. 45.100\n",
      "  libavdevice    58. 10.100 / 58. 10.100\n",
      "  libavfilter     7. 85.100 /  7. 85.100\n",
      "  libavresample   4.  0.  0 /  4.  0.  0\n",
      "  libswscale      5.  7.100 /  5.  7.100\n",
      "  libswresample   3.  7.100 /  3.  7.100\n",
      "Input #0, matroska,webm, from '../us_raw/s6_01.mkv':\n",
      "  Metadata:\n",
      "    ENCODER         : Lavf60.16.100\n",
      "  Duration: 00:00:40.27, start: 0.000000, bitrate: 6544 kb/s\n",
      "    Stream #0:0: Video: h264 (High), yuv420p(tv, bt709, progressive), 1920x1080 [SAR 1:1 DAR 16:9], 60 fps, 60 tbr, 1k tbn, 120 tbc\n",
      "    Metadata:\n",
      "      DURATION        : 00:00:40.267000000\n",
      "    Stream #0:1: Audio: aac (LC), 48000 Hz, stereo, fltp\n",
      "    Metadata:\n",
      "      title           : simple_aac_recording0\n",
      "      DURATION        : 00:00:40.213000000\n",
      "Stream mapping:\n",
      "  Stream #0:1 -> #0:0 (aac (native) -> pcm_s16le (native))\n",
      "Press [q] to stop, [?] for help\n",
      "Output #0, wav, to '../us_raw_audio/s6_01.wav':\n",
      "  Metadata:\n",
      "    ISFT            : Lavf58.45.100\n",
      "    Stream #0:0: Audio: pcm_s16le ([1][0][0][0] / 0x0001), 44100 Hz, stereo, s16, 1411 kb/s\n",
      "    Metadata:\n",
      "      title           : simple_aac_recording0\n",
      "      DURATION        : 00:00:40.213000000\n",
      "      encoder         : Lavc58.91.100 pcm_s16le\n",
      "size=    6927kB time=00:00:40.21 bitrate=1411.2kbits/s speed=1.01e+03x    \n",
      "video:0kB audio:6927kB subtitle:0kB other streams:0kB global headers:0kB muxing overhead: 0.001100%\n",
      "ffmpeg version 4.3 Copyright (c) 2000-2020 the FFmpeg developers\n",
      "  built with gcc 7.3.0 (crosstool-NG 1.23.0.449-a04d0)\n",
      "  configuration: --prefix=/opt/conda/conda-bld/ffmpeg_1597178665428/_h_env_placehold_placehold_placehold_placehold_placehold_placehold_placehold_placehold_placehold_placehold_placehold_placehold_placehold_placehold_placehold_placehold_placehold_placehold_placehold_placehold_placeh --cc=/opt/conda/conda-bld/ffmpeg_1597178665428/_build_env/bin/x86_64-conda_cos6-linux-gnu-cc --disable-doc --disable-openssl --enable-avresample --enable-gnutls --enable-hardcoded-tables --enable-libfreetype --enable-libopenh264 --enable-pic --enable-pthreads --enable-shared --disable-static --enable-version3 --enable-zlib --enable-libmp3lame\n",
      "  libavutil      56. 51.100 / 56. 51.100\n",
      "  libavcodec     58. 91.100 / 58. 91.100\n",
      "  libavformat    58. 45.100 / 58. 45.100\n",
      "  libavdevice    58. 10.100 / 58. 10.100\n",
      "  libavfilter     7. 85.100 /  7. 85.100\n",
      "  libavresample   4.  0.  0 /  4.  0.  0\n",
      "  libswscale      5.  7.100 /  5.  7.100\n",
      "  libswresample   3.  7.100 /  3.  7.100\n",
      "Input #0, matroska,webm, from '../us_raw/s5_05.mkv':\n",
      "  Metadata:\n",
      "    ENCODER         : Lavf60.16.100\n",
      "  Duration: 00:00:44.08, start: 0.000000, bitrate: 6455 kb/s\n",
      "    Stream #0:0: Video: h264 (High), yuv420p(tv, bt709, progressive), 1920x1080 [SAR 1:1 DAR 16:9], 60 fps, 60 tbr, 1k tbn, 120 tbc\n",
      "    Metadata:\n",
      "      DURATION        : 00:00:44.084000000\n",
      "    Stream #0:1: Audio: aac (LC), 48000 Hz, stereo, fltp\n",
      "    Metadata:\n",
      "      title           : simple_aac_recording0\n",
      "      DURATION        : 00:00:44.053000000\n",
      "Stream mapping:\n",
      "  Stream #0:1 -> #0:0 (aac (native) -> pcm_s16le (native))\n",
      "Press [q] to stop, [?] for help\n",
      "Output #0, wav, to '../us_raw_audio/s5_05.wav':\n",
      "  Metadata:\n",
      "    ISFT            : Lavf58.45.100\n",
      "    Stream #0:0: Audio: pcm_s16le ([1][0][0][0] / 0x0001), 44100 Hz, stereo, s16, 1411 kb/s\n",
      "    Metadata:\n",
      "      title           : simple_aac_recording0\n",
      "      DURATION        : 00:00:44.053000000\n",
      "      encoder         : Lavc58.91.100 pcm_s16le\n",
      "size=    7589kB time=00:00:44.05 bitrate=1411.2kbits/s speed=1.04e+03x    \n",
      "video:0kB audio:7589kB subtitle:0kB other streams:0kB global headers:0kB muxing overhead: 0.001004%\n",
      "ffmpeg version 4.3 Copyright (c) 2000-2020 the FFmpeg developers\n",
      "  built with gcc 7.3.0 (crosstool-NG 1.23.0.449-a04d0)\n",
      "  configuration: --prefix=/opt/conda/conda-bld/ffmpeg_1597178665428/_h_env_placehold_placehold_placehold_placehold_placehold_placehold_placehold_placehold_placehold_placehold_placehold_placehold_placehold_placehold_placehold_placehold_placehold_placehold_placehold_placehold_placeh --cc=/opt/conda/conda-bld/ffmpeg_1597178665428/_build_env/bin/x86_64-conda_cos6-linux-gnu-cc --disable-doc --disable-openssl --enable-avresample --enable-gnutls --enable-hardcoded-tables --enable-libfreetype --enable-libopenh264 --enable-pic --enable-pthreads --enable-shared --disable-static --enable-version3 --enable-zlib --enable-libmp3lame\n",
      "  libavutil      56. 51.100 / 56. 51.100\n",
      "  libavcodec     58. 91.100 / 58. 91.100\n",
      "  libavformat    58. 45.100 / 58. 45.100\n",
      "  libavdevice    58. 10.100 / 58. 10.100\n",
      "  libavfilter     7. 85.100 /  7. 85.100\n",
      "  libavresample   4.  0.  0 /  4.  0.  0\n",
      "  libswscale      5.  7.100 /  5.  7.100\n",
      "  libswresample   3.  7.100 /  3.  7.100\n",
      "Input #0, matroska,webm, from '../us_raw/s4_03.mkv':\n",
      "  Metadata:\n",
      "    ENCODER         : Lavf60.16.100\n",
      "  Duration: 00:00:37.40, start: 0.000000, bitrate: 6557 kb/s\n",
      "    Stream #0:0: Video: h264 (High), yuv420p(tv, bt709, progressive), 1920x1080 [SAR 1:1 DAR 16:9], 60 fps, 60 tbr, 1k tbn, 120 tbc\n",
      "    Metadata:\n",
      "      DURATION        : 00:00:37.400000000\n",
      "    Stream #0:1: Audio: aac (LC), 48000 Hz, stereo, fltp\n",
      "    Metadata:\n",
      "      title           : simple_aac_recording0\n",
      "      DURATION        : 00:00:37.376000000\n",
      "Stream mapping:\n",
      "  Stream #0:1 -> #0:0 (aac (native) -> pcm_s16le (native))\n",
      "Press [q] to stop, [?] for help\n",
      "Output #0, wav, to '../us_raw_audio/s4_03.wav':\n",
      "  Metadata:\n",
      "    ISFT            : Lavf58.45.100\n",
      "    Stream #0:0: Audio: pcm_s16le ([1][0][0][0] / 0x0001), 44100 Hz, stereo, s16, 1411 kb/s\n",
      "    Metadata:\n",
      "      title           : simple_aac_recording0\n",
      "      DURATION        : 00:00:37.376000000\n",
      "      encoder         : Lavc58.91.100 pcm_s16le\n",
      "size=    6439kB time=00:00:37.37 bitrate=1411.2kbits/s speed=1.05e+03x    \n",
      "video:0kB audio:6439kB subtitle:0kB other streams:0kB global headers:0kB muxing overhead: 0.001183%\n",
      "ffmpeg version 4.3 Copyright (c) 2000-2020 the FFmpeg developers\n",
      "  built with gcc 7.3.0 (crosstool-NG 1.23.0.449-a04d0)\n",
      "  configuration: --prefix=/opt/conda/conda-bld/ffmpeg_1597178665428/_h_env_placehold_placehold_placehold_placehold_placehold_placehold_placehold_placehold_placehold_placehold_placehold_placehold_placehold_placehold_placehold_placehold_placehold_placehold_placehold_placehold_placeh --cc=/opt/conda/conda-bld/ffmpeg_1597178665428/_build_env/bin/x86_64-conda_cos6-linux-gnu-cc --disable-doc --disable-openssl --enable-avresample --enable-gnutls --enable-hardcoded-tables --enable-libfreetype --enable-libopenh264 --enable-pic --enable-pthreads --enable-shared --disable-static --enable-version3 --enable-zlib --enable-libmp3lame\n",
      "  libavutil      56. 51.100 / 56. 51.100\n",
      "  libavcodec     58. 91.100 / 58. 91.100\n",
      "  libavformat    58. 45.100 / 58. 45.100\n",
      "  libavdevice    58. 10.100 / 58. 10.100\n",
      "  libavfilter     7. 85.100 /  7. 85.100\n",
      "  libavresample   4.  0.  0 /  4.  0.  0\n",
      "  libswscale      5.  7.100 /  5.  7.100\n",
      "  libswresample   3.  7.100 /  3.  7.100\n",
      "Input #0, matroska,webm, from '../us_raw/s4_05.mkv':\n",
      "  Metadata:\n",
      "    ENCODER         : Lavf60.16.100\n",
      "  Duration: 00:00:36.85, start: 0.000000, bitrate: 6539 kb/s\n",
      "    Stream #0:0: Video: h264 (High), yuv420p(tv, bt709, progressive), 1920x1080 [SAR 1:1 DAR 16:9], 60 fps, 60 tbr, 1k tbn, 120 tbc\n",
      "    Metadata:\n",
      "      DURATION        : 00:00:36.850000000\n",
      "    Stream #0:1: Audio: aac (LC), 48000 Hz, stereo, fltp\n",
      "    Metadata:\n",
      "      title           : simple_aac_recording0\n",
      "      DURATION        : 00:00:36.800000000\n",
      "Stream mapping:\n",
      "  Stream #0:1 -> #0:0 (aac (native) -> pcm_s16le (native))\n",
      "Press [q] to stop, [?] for help\n"
     ]
    },
    {
     "name": "stdout",
     "output_type": "stream",
     "text": [
      "Audio extraction complete.\n"
     ]
    },
    {
     "name": "stderr",
     "output_type": "stream",
     "text": [
      "Output #0, wav, to '../us_raw_audio/s4_05.wav':\n",
      "  Metadata:\n",
      "    ISFT            : Lavf58.45.100\n",
      "    Stream #0:0: Audio: pcm_s16le ([1][0][0][0] / 0x0001), 44100 Hz, stereo, s16, 1411 kb/s\n",
      "    Metadata:\n",
      "      title           : simple_aac_recording0\n",
      "      DURATION        : 00:00:36.800000000\n",
      "      encoder         : Lavc58.91.100 pcm_s16le\n",
      "size=    6339kB time=00:00:36.80 bitrate=1411.2kbits/s speed=1.05e+03x    \n",
      "video:0kB audio:6339kB subtitle:0kB other streams:0kB global headers:0kB muxing overhead: 0.001202%\n",
      "ffmpeg version 4.3 Copyright (c) 2000-2020 the FFmpeg developers\n",
      "  built with gcc 7.3.0 (crosstool-NG 1.23.0.449-a04d0)\n",
      "  configuration: --prefix=/opt/conda/conda-bld/ffmpeg_1597178665428/_h_env_placehold_placehold_placehold_placehold_placehold_placehold_placehold_placehold_placehold_placehold_placehold_placehold_placehold_placehold_placehold_placehold_placehold_placehold_placehold_placehold_placeh --cc=/opt/conda/conda-bld/ffmpeg_1597178665428/_build_env/bin/x86_64-conda_cos6-linux-gnu-cc --disable-doc --disable-openssl --enable-avresample --enable-gnutls --enable-hardcoded-tables --enable-libfreetype --enable-libopenh264 --enable-pic --enable-pthreads --enable-shared --disable-static --enable-version3 --enable-zlib --enable-libmp3lame\n",
      "  libavutil      56. 51.100 / 56. 51.100\n",
      "  libavcodec     58. 91.100 / 58. 91.100\n",
      "  libavformat    58. 45.100 / 58. 45.100\n",
      "  libavdevice    58. 10.100 / 58. 10.100\n",
      "  libavfilter     7. 85.100 /  7. 85.100\n",
      "  libavresample   4.  0.  0 /  4.  0.  0\n",
      "  libswscale      5.  7.100 /  5.  7.100\n",
      "  libswresample   3.  7.100 /  3.  7.100\n",
      "Input #0, matroska,webm, from '../us_raw/s3_05.mkv':\n",
      "  Metadata:\n",
      "    ENCODER         : Lavf60.16.100\n",
      "  Duration: 00:00:30.53, start: 0.000000, bitrate: 6345 kb/s\n",
      "    Stream #0:0: Video: h264 (High), yuv420p(tv, bt709, progressive), 1920x1080 [SAR 1:1 DAR 16:9], 60 fps, 60 tbr, 1k tbn, 120 tbc\n",
      "    Metadata:\n",
      "      DURATION        : 00:00:30.534000000\n",
      "    Stream #0:1: Audio: aac (LC), 48000 Hz, stereo, fltp\n",
      "    Metadata:\n",
      "      title           : simple_aac_recording0\n",
      "      DURATION        : 00:00:30.506000000\n",
      "Stream mapping:\n",
      "  Stream #0:1 -> #0:0 (aac (native) -> pcm_s16le (native))\n",
      "Press [q] to stop, [?] for help\n",
      "Output #0, wav, to '../us_raw_audio/s3_05.wav':\n",
      "  Metadata:\n",
      "    ISFT            : Lavf58.45.100\n",
      "    Stream #0:0: Audio: pcm_s16le ([1][0][0][0] / 0x0001), 44100 Hz, stereo, s16, 1411 kb/s\n",
      "    Metadata:\n",
      "      title           : simple_aac_recording0\n",
      "      DURATION        : 00:00:30.506000000\n",
      "      encoder         : Lavc58.91.100 pcm_s16le\n",
      "size=    5255kB time=00:00:30.50 bitrate=1411.2kbits/s speed=1.07e+03x    \n",
      "video:0kB audio:5255kB subtitle:0kB other streams:0kB global headers:0kB muxing overhead: 0.001449%\n"
     ]
    }
   ],
   "source": [
    "import os\n",
    "import subprocess\n",
    "\n",
    "# Path to the directory containing the MKV files\n",
    "input_directory = '../us_raw'\n",
    "output_directory = '../us_raw_audio'\n",
    "\n",
    "# Create the output directory if it doesn't exist\n",
    "os.makedirs(output_directory, exist_ok=True)\n",
    "\n",
    "# List all files in the input directory\n",
    "files = os.listdir(input_directory)\n",
    "\n",
    "# Extract audio from each MKV file\n",
    "for file in files:\n",
    "    if file.endswith('.mkv'):\n",
    "        input_file = os.path.join(input_directory, file)\n",
    "        output_file = os.path.join(output_directory, file.replace('.mkv', '.wav'))\n",
    "        \n",
    "        # Run ffmpeg to extract audio and save as WAV\n",
    "        subprocess.run(['ffmpeg', '-i', input_file, '-vn', '-acodec', 'pcm_s16le', '-ar', '44100', '-ac', '2', output_file])\n",
    "\n",
    "print(\"Audio extraction complete.\")\n"
   ]
  },
  {
   "cell_type": "code",
   "execution_count": 1,
   "metadata": {},
   "outputs": [
    {
     "name": "stderr",
     "output_type": "stream",
     "text": [
      "/home/pengy/.conda/envs/torch/lib/python3.10/site-packages/tqdm/auto.py:21: TqdmWarning: IProgress not found. Please update jupyter and ipywidgets. See https://ipywidgets.readthedocs.io/en/stable/user_install.html\n",
      "  from .autonotebook import tqdm as notebook_tqdm\n",
      "/home/pengy/.conda/envs/torch/lib/python3.10/site-packages/transformers/utils/generic.py:482: UserWarning: torch.utils._pytree._register_pytree_node is deprecated. Please use torch.utils._pytree.register_pytree_node instead.\n",
      "  _torch_pytree._register_pytree_node(\n",
      "/home/pengy/.conda/envs/torch/lib/python3.10/site-packages/transformers/utils/generic.py:339: UserWarning: torch.utils._pytree._register_pytree_node is deprecated. Please use torch.utils._pytree.register_pytree_node instead.\n",
      "  _torch_pytree._register_pytree_node(\n",
      "Some weights of Wav2Vec2Model were not initialized from the model checkpoint at facebook/wav2vec2-base-960h and are newly initialized: ['wav2vec2.encoder.pos_conv_embed.conv.parametrizations.weight.original0', 'wav2vec2.encoder.pos_conv_embed.conv.parametrizations.weight.original1', 'wav2vec2.masked_spec_embed']\n",
      "You should probably TRAIN this model on a down-stream task to be able to use it for predictions and inference.\n",
      "usage: ipykernel_launcher.py [-h] [--config CONFIG] ...\n",
      "ipykernel_launcher.py: error: unrecognized arguments: --f=/home/pengy/.local/share/jupyter/runtime/kernel-v2-22127907C4NcxuZFeXe.json\n"
     ]
    },
    {
     "ename": "SystemExit",
     "evalue": "2",
     "output_type": "error",
     "traceback": [
      "An exception has occurred, use %tb to see the full traceback.\n",
      "\u001b[0;31mSystemExit\u001b[0m\u001b[0;31m:\u001b[0m 2\n"
     ]
    },
    {
     "name": "stderr",
     "output_type": "stream",
     "text": [
      "/home/pengy/.conda/envs/torch/lib/python3.10/site-packages/IPython/core/interactiveshell.py:3585: UserWarning: To exit: use 'exit', 'quit', or Ctrl-D.\n",
      "  warn(\"To exit: use 'exit', 'quit', or Ctrl-D.\", stacklevel=1)\n"
     ]
    }
   ],
   "source": [
    "import os\n",
    "import torch\n",
    "import torchaudio\n",
    "from torch.utils.data import Dataset, DataLoader\n",
    "from transformers import Wav2Vec2Processor, Wav2Vec2Model\n",
    "\n",
    "from torch import nn\n",
    "from torch.optim.lr_scheduler import StepLR\n",
    "from model.utils import get_parser\n",
    "\n",
    "def get_model(cfg):\n",
    "    ## old\n",
    "    if cfg.arch == 'vocal_stage1':\n",
    "        from model.audio_vqvae import VQAutoEncoder as Model\n",
    "        model = Model(args=cfg)\n",
    "    else:\n",
    "        raise Exception('architecture not supported yet'.format(cfg.arch))\n",
    "    return model\n",
    "\n",
    "\n",
    "class AudioDataset(Dataset):\n",
    "    def __init__(self, audio_dir, segment_ms, processor):\n",
    "        self.audio_dir = audio_dir\n",
    "        self.segment_ms = segment_ms\n",
    "        self.processor = processor\n",
    "        self.sample_rate = 16000  # Wav2Vec2 expects 16000 Hz\n",
    "        self.segment_len = int(self.sample_rate * (self.segment_ms / 1000))  # Segment length in samples\n",
    "        self.file_list = []\n",
    "        self.load_and_segment_files()\n",
    "\n",
    "    def load_and_segment_files(self):\n",
    "        audio_files = [os.path.join(self.audio_dir, f) for f in os.listdir(self.audio_dir) if f.endswith('.wav')]\n",
    "\n",
    "        for audio_path in audio_files:\n",
    "            waveform, sample_rate = torchaudio.load(audio_path)\n",
    "            \n",
    "            # Resample to Wav2Vec2's expected sample rate\n",
    "            if sample_rate != self.sample_rate:\n",
    "                waveform = torchaudio.transforms.Resample(orig_freq=sample_rate, new_freq=self.sample_rate)(waveform)\n",
    "\n",
    "            if waveform.size(0) > 1:\n",
    "                waveform = waveform.mean(dim=0, keepdim=True)\n",
    "            \n",
    "            \n",
    "            # Segment the waveform into chunks of segment_len\n",
    "            num_frames = waveform.size(1)\n",
    "            for start_idx in range(0, num_frames, self.segment_len):\n",
    "                if start_idx + self.segment_len <= num_frames:\n",
    "                    segment = waveform[:, start_idx:start_idx + self.segment_len]\n",
    "                    self.file_list.append(segment)\n",
    "\n",
    "    def __len__(self):\n",
    "        return len(self.file_list)\n",
    "\n",
    "    def __getitem__(self, idx):\n",
    "        segment = self.file_list[idx]\n",
    "        inputs = self.processor(segment.squeeze(0), sampling_rate=self.sample_rate, return_tensors=\"pt\", padding=True)\n",
    "        return inputs.input_values.squeeze(0)\n",
    "\n",
    "def collate_fn(batch):\n",
    "    return torch.stack(batch)\n",
    "\n",
    "# Parameters\n",
    "audio_directory = '../us_raw_audio'\n",
    "segment_duration_ms = 25  # Desired sequence length\n",
    "\n",
    "processor = Wav2Vec2Processor.from_pretrained(\"facebook/wav2vec2-base-960h\")\n",
    "wav_model = Wav2Vec2Model.from_pretrained(\"facebook/wav2vec2-base-960h\")\n",
    "\n",
    "# Create dataset and dataloader\n",
    "audio_dataset = AudioDataset(audio_directory,  segment_duration_ms, processor)\n",
    "audio_dataloader = DataLoader(audio_dataset, batch_size=4, shuffle=True, collate_fn=collate_fn)\n",
    "\n",
    "args = get_parser()\n",
    "model = get_model(args)\n",
    "\n",
    "# Iterate over the dataloader\n",
    "for batch in audio_dataloader:\n",
    "    print('batch', batch.shape)\n",
    "    # with torch.no_grad():\n",
    "    #     outputs = wav_model(batch)\n",
    "    #     print(outputs.last_hidden_state.shape)\n",
    "    # Perform operations on the batch\n"
   ]
  }
 ],
 "metadata": {
  "kernelspec": {
   "display_name": "torch",
   "language": "python",
   "name": "python3"
  },
  "language_info": {
   "codemirror_mode": {
    "name": "ipython",
    "version": 3
   },
   "file_extension": ".py",
   "mimetype": "text/x-python",
   "name": "python",
   "nbconvert_exporter": "python",
   "pygments_lexer": "ipython3",
   "version": "3.10.14"
  }
 },
 "nbformat": 4,
 "nbformat_minor": 2
}
